/* XPM */
static char *_4bba3ed17d144caaa5e117da29b3333OMdg1Q7XwZDL8vFM[] = {
/* columns rows colors chars-per-pixel */
"32 32 244 2 ",
"   c #197D09",
".  c #0D7C03",
"X  c #128102",
"o  c #1D8C01",
"O  c #13840C",
"+  c #1B8C0A",
"@  c #1B860A",
"#  c #1E9608",
"$  c #1D8C13",
"%  c #168716",
"&  c #159316",
"*  c #15931A",
"=  c #1B921B",
"-  c #1C9B18",
";  c #09931C",
":  c #22840D",
">  c #279A09",
",  c #238E16",
"<  c #248D1D",
"1  c #2B8F18",
"2  c #298E16",
"3  c #249312",
"4  c #249D15",
"5  c #2B951D",
"6  c #2B9B1C",
"7  c #259A1A",
"8  c #319D19",
"9  c #18AB0D",
"0  c #1BA91A",
"q  c #10B01C",
"w  c #2EA60C",
"e  c #32B40D",
"r  c #24AD15",
"t  c #23A319",
"y  c #2CA41B",
"u  c #2CAB1A",
"i  c #29A615",
"p  c #32A41B",
"a  c #34AC1C",
"s  c #34A817",
"d  c #24B119",
"f  c #2CB41B",
"g  c #2CB816",
"h  c #33B415",
"j  c #3AB516",
"k  c #33BC14",
"l  c #33B41B",
"z  c #3BB51C",
"x  c #32BB1C",
"c  c #3BBA1C",
"v  c #24B20E",
"b  c #0D8A21",
"n  c #188C27",
"m  c #1A9726",
"M  c #1B9735",
"N  c #1B953A",
"B  c #199C37",
"V  c #0C9F2A",
"C  c #2C9B22",
"Z  c #289926",
"A  c #349D25",
"S  c #279B38",
"D  c #208C26",
"F  c #0BA524",
"G  c #0DAE24",
"H  c #1BA323",
"J  c #13AC23",
"K  c #1AAA23",
"L  c #16A62B",
"P  c #0CB420",
"I  c #19B228",
"U  c #13AC34",
"Y  c #15AD3F",
"T  c #19A735",
"R  c #1CB23B",
"E  c #1ABA3A",
"W  c #17B637",
"Q  c #0EAD38",
"!  c #25A525",
"~  c #2AA326",
"^  c #25AC23",
"/  c #2AAE23",
"(  c #23AF2C",
")  c #27A92A",
"_  c #33AB22",
"`  c #39AC2E",
"'  c #37A826",
"]  c #2CB225",
"[  c #2BB32B",
"{  c #29B927",
"}  c #34B423",
"|  c #33BB23",
" . c #3CBB23",
".. c #33B229",
"X. c #35BC2C",
"o. c #3CBA2C",
"O. c #3CB425",
"+. c #22AC32",
"@. c #2FAD33",
"#. c #26A336",
"$. c #3CAB33",
"%. c #24B333",
"&. c #2FBA32",
"*. c #22B43A",
"=. c #2BB43B",
"-. c #2ABC3B",
";. c #29B632",
":. c #3ABA33",
">. c #37B938",
",. c #41BA1D",
"<. c #42B622",
"1. c #44BB23",
"2. c #41BC2A",
"3. c #45B629",
"4. c #45B937",
"5. c #42AB31",
"6. c #3DC11A",
"7. c #1FC32E",
"8. c #11C035",
"9. c #3AC327",
"0. c #2AC337",
"q. c #3DC134",
"w. c #34C23E",
"e. c #3CC43C",
"r. c #39C93C",
"t. c #43CB25",
"y. c #44C427",
"u. c #42C43C",
"i. c #43CA3D",
"p. c #4ACB3D",
"a. c #45C737",
"s. c #51D53B",
"d. c #48D237",
"f. c #259F48",
"g. c #1BA343",
"h. c #13AD43",
"j. c #1AAA4A",
"k. c #1DB444",
"l. c #1AB846",
"z. c #19A951",
"x. c #25A949",
"c. c #34A542",
"v. c #22B944",
"b. c #2ABA48",
"n. c #32BC42",
"m. c #23AC56",
"M. c #26A651",
"N. c #25B959",
"B. c #36BF55",
"V. c #1DBD62",
"C. c #29BE63",
"Z. c #43AF42",
"A. c #43B649",
"S. c #1CC64B",
"D. c #1FC65A",
"F. c #37C746",
"G. c #37D54C",
"H. c #28C657",
"J. c #34C452",
"K. c #39C955",
"L. c #2CD559",
"P. c #35D757",
"I. c #2DCF45",
"U. c #2FE05E",
"Y. c #39E55F",
"T. c #2BCB63",
"R. c #27C661",
"E. c #31CD60",
"W. c #27D867",
"Q. c #35D465",
"!. c #3CD967",
"~. c #2FDA77",
"^. c #34DC7A",
"/. c #38D974",
"(. c #30CC71",
"). c #2FE467",
"_. c #3BE775",
"`. c #38E46E",
"'. c #49CC45",
"]. c #46CA47",
"[. c #5AC348",
"{. c #4CD246",
"}. c #4BD24C",
"|. c #45D54A",
" X c #54D64A",
".X c #49CC54",
"XX c #44CE55",
"oX c #57CA54",
"OX c #47D755",
"+X c #58D755",
"@X c #64D55A",
"#X c #67CF54",
"$X c #47E35C",
"%X c #58E35A",
"&X c #60E25E",
"*X c #41D461",
"=X c #48D966",
"-X c #5CDC62",
";X c #53D962",
":X c #45DD76",
">X c #48E467",
",X c #58E76E",
"<X c #42E37D",
"1X c #4CE97C",
"2X c #4CE87B",
"3X c #57E877",
"4X c #67E868",
"5X c #65EA7C",
"6X c #63E97A",
"7X c #70EB73",
"8X c #36DE84",
"9X c #3DEC87",
"0X c #3CE687",
"qX c #43EC8A",
"wX c #48EB86",
"eX c #58EE86",
"rX c #44F38C",
"tX c #4BF38B",
"yX c #4BF98D",
"uX c #47F383",
"iX c #58F489",
"pX c #4CF493",
"aX c #47FA94",
"sX c #4CFB94",
"dX c #45F29A",
"fX c #4BF79C",
"gX c #4CFA9C",
"hX c #46F392",
"jX c #55F693",
"kX c #5BF493",
"lX c #52FB96",
"zX c #53FD9C",
"xX c #5BFC9B",
"cX c #59FA95",
"vX c #4FED91",
"bX c #64EB87",
"nX c #64F38A",
"mX c #62F193",
"MX c #61FA9A",
"NX c #63FC98",
"BX c #66EF95",
"VX c #53FFA3",
"CX c #5EFFA1",
"ZX c #4EFCA5",
/* pixels */
"MXMXMXcXjXhXdXdXdXdXdXkX3XOXe.o.e.}.3XiXyXtXhXfXgXaXaXaXzXzXgXzX",
"MXkXvXjXxXzXVXfXZXfXjXkX3X;Xu.q.u..X,X6XiXpXaXaXaXaXyXlXzXlXpXgX",
"MXBXmXmXxXCXVXfXdXqXqX1X>X.Xu.q.q.F.$X>X1XrXrX9X9X9XrXtXxXcXcXxX",
"BXBXmXkXmXkXvXjX^.^./.!.K.F.} o.9.;.F.G.Q.^.^.^.~._._.wXcXNXcXNX",
"bXbXnXnXeX2X:X(.R.R.H.J.F.[ } | | { ;.0.H.T.T.R.H.R.Q.3XnXnX3X>X",
"bX5XbXbX3X*Xb.g.h.l.b.v.( ] } 1.9.x { %.l.S.l.h.h.k.J.=X,X>XK.n.",
"oX-X+X+X.X>.%.L R R R %.( }  .9.6.7.f I W R Y Y k.v.n..X}.F.&.[ ",
"$.].'.i.q.{ &.F.F.F.&.( ] }  .c g d d J I b.B.J.XX.X].a.a.o.} } ",
"] l l l g g 9.r.G.|.|.r.X.l h j h v 0 K %.R =.n.].'.p.2. .z j l ",
"d v v g 6.g | 9.9.d. X{.o.i s c x i 0 H H m m H ~ } 2.,.j j j e ",
"d 9 9 v g 6.k g g a. X Xz > > s z u t 0 * * * & # _ <.1.,.,.j w ",
"I 0 9 9 d 6.| | { q.p.a.u o > w a u t - & * - C ' 3.3.<.z 1.l # ",
"W I G q d d { | X.X.:.} 3 o > > y i 6 - & $ ~ ` 4.4.O.p a o...- ",
"D.S.E U I I ] ] ] [ [ ~ + X : > p i 7 + O % Z ` 5.8 3 + 7 ` @.! ",
"~.W.D.l.I I %.&.[ ) ~ y + X o > p p 7 + O $ < C : : O . % Z S B ",
"0X~.D.h.Q E -.F.>.;.) 7 # + > 8 a s 6 3 $ $ , , 8 6 7 = n T #.x.",
"_.W.S.W 8.I.}.%X+Xe.^ - 4 i i a } u 4 6 6 5 1 1 A [.#XoXoXB.b.K.",
").W.S.S.F.|.%X,X%X{.[ t i i u }  .l u _ A 1 : : 5.#X7X4X+XK.B.E.",
").).P.G.G.}.}.}. Xa...y i a a 1.9.h a _ A :     A A.@X@X.XF.B.*X",
"Y.Y.$X$X}.].4.:.:.` p y a O.,.,.6.k u a ' C     1 5.A.4.=.=.J.XX",
"I.Y.Y.|.].:.` ' A 5 3 3 _ <.<.,.6.k s <.4.5.A : < A @.@.=.=.-.-.",
"7.7.r.r.>.` C 5 $ % X + p 3.3.1.k e ,.p.+XoXZ.S D n n m +.=.-.0.",
"7.7.7.9.[ ~ Z < % % O O 6 ..2.y.k 6.t.s.#XoXA.c.n n b b L ;.0.-.",
"P P I K * & = % n D n m ! _ } } t.t.s.s.'.A.c.S f.N M T T T U J ",
"P P P F ; ; b n M B T #.L H 0 d t.d.s.p.:.#.S N f.f.M.m.v.U F F ",
"8.8.W W U T Q B g.g.g.g.L L H ^ | t.a.e.@.M M N M.M.m.N.b.k.l.l.",
"U.U.L.L.E.E.C.m.z.z.j.h.V F L K r u ] / ! m B x.f.z.z.C.T.!.Q.!.",
"_.`.Y._.<X8X~.(.V.V.V.N.N.h.R %.^ u ] / H +.b.J.m.C.C.(.^._.1X1X",
"uXuXuXtXtXhXqX0X8X8X0X8X<X!.*XOX}.{.{.e.&.-.K.=X:X:XwXwXpXtXtXyX",
"sXsXlXzXxXzXVXgXgXfXpXjXiXiX6X5X4X4X+X{.r.F.OX3XiXeXjXlXlXpXyXyX",
"sXlXlXsXzXzXgXZXZXVXpXvXiXeX5X5X4X&X}.].q.r.OX$X2XwXtXsXhXrXyXaX",
"zXlXlXzXVXVXVXVXZXdXqX0X:X2X3X5X,X Xp.0.0.0.w.G.!.<X<XqX9X9XrXaX"
};
