/* XPM */
static char *_994576ebe7d4253c4c1f44020fc2c7347IsgCHi3TiA6tmo[] = {
/* columns rows colors chars-per-pixel */
"32 32 235 2 ",
"   c #0A0808",
".  c #150B0D",
"X  c #0B0018",
"o  c #1A0414",
"O  c #14011B",
"+  c #1C011B",
"@  c #170715",
"#  c #09150A",
"$  c #230519",
"%  c #250716",
"&  c #360219",
"*  c #0D0228",
"=  c #170B25",
"-  c #1C0D22",
";  c #15032A",
":  c #1C0D2C",
">  c #150626",
",  c #1D132C",
"<  c #130A33",
"1  c #170836",
"2  c #15133D",
"3  c #1A1539",
"4  c #1A1736",
"5  c #0D0E38",
"6  c #230B24",
"7  c #2A0D23",
"8  c #240A2C",
"9  c #260829",
"0  c #3A0A26",
"q  c #28152B",
"w  c #250C35",
"e  c #2A0D32",
"r  c #280B3A",
"t  c #3A0535",
"y  c #241934",
"u  c #271736",
"i  c #331532",
"p  c #31133E",
"a  c #39183B",
"s  c #30122E",
"d  c #19223F",
"f  c #2C223F",
"g  c #3C253A",
"h  c #4B0729",
"j  c #470B36",
"k  c #530E39",
"l  c #43143A",
"z  c #0C1A42",
"x  c #131440",
"c  c #1B1C4B",
"v  c #191947",
"b  c #1D1B57",
"n  c #140D4A",
"m  c #270F42",
"M  c #2C1344",
"N  c #251748",
"B  c #341A4B",
"V  c #361646",
"C  c #251C58",
"Z  c #331F50",
"A  c #1C2345",
"S  c #132754",
"D  c #252849",
"F  c #392647",
"G  c #3F3047",
"H  c #2A2553",
"J  c #272858",
"K  c #3C2354",
"L  c #352859",
"P  c #36355F",
"I  c #211E61",
"U  c #182866",
"Y  c #1D3663",
"T  c #0F236C",
"R  c #262A66",
"E  c #382967",
"W  c #3A346A",
"Q  c #373464",
"!  c #2C3879",
"~  c #373776",
"^  c #2E3C6D",
"/  c #481745",
"(  c #4C1A4B",
")  c #462447",
"_  c #4A314A",
"`  c #462A5A",
"'  c #542954",
"]  c #5E345B",
"[  c #513152",
"{  c #492E64",
"}  c #4B3365",
"|  c #493A67",
" . c #563B6A",
".. c #522672",
"X. c #443D77",
"o. c #573C79",
"O. c #643577",
"+. c #6B3770",
"@. c #521E70",
"#. c #3B417D",
"$. c #46436D",
"%. c #474176",
"&. c #584879",
"*. c #724577",
"=. c #714F7D",
"-. c #76677E",
";. c #824C78",
":. c #81507B",
">. c #263B87",
",. c #583F80",
"<. c #682783",
"1. c #6A3887",
"2. c #753D8D",
"3. c #3B4D98",
"4. c #374486",
"5. c #494A87",
"6. c #564A86",
"7. c #4A5697",
"8. c #585A92",
"9. c #4B5190",
"0. c #6C4487",
"q. c #7D4C8D",
"w. c #7A4888",
"e. c #67578A",
"r. c #76578C",
"t. c #7D4B94",
"y. c #7C4590",
"u. c #6D5C96",
"i. c #695D99",
"p. c #775798",
"a. c #586198",
"s. c #76618E",
"d. c #68639A",
"f. c #77659A",
"g. c #7B709B",
"h. c #4257A4",
"j. c #445AA5",
"k. c #755DA2",
"l. c #5C6AAD",
"z. c #5E70B9",
"x. c #5F6EB1",
"c. c #6968A7",
"v. c #7769A6",
"b. c #7576AB",
"n. c #6571B9",
"m. c #6C71B2",
"M. c #787AC3",
"N. c #864786",
"B. c #844B95",
"V. c #895898",
"C. c #935D99",
"Z. c #8D538D",
"A. c #906287",
"S. c #88649B",
"D. c #89759E",
"F. c #997198",
"G. c #80608F",
"H. c #8D59A4",
"J. c #955CA2",
"K. c #9956B3",
"L. c #A05DBA",
"P. c #8B66A6",
"I. c #9867A4",
"U. c #8976AA",
"Y. c #9579A9",
"T. c #867AB9",
"R. c #9E7AB4",
"E. c #9A7BB6",
"W. c #856CB0",
"Q. c #A864A9",
"!. c #A279AC",
"~. c #A976B5",
"^. c #AF70B4",
"/. c #9B7EC1",
"(. c #AE7CC2",
"). c #B879C7",
"_. c #7481AE",
"`. c #7C86B9",
"'. c #7C84C2",
"]. c #9581A8",
"[. c #8983BF",
"{. c #9885B5",
"}. c #A684AA",
"|. c #A787B9",
" X c #B483BC",
".X c #AA97B7",
"XX c #BC92B6",
"oX c #978BC6",
"OX c #8696CC",
"+X c #9A95CA",
"@X c #8994D3",
"#X c #9798D6",
"$X c #AB87C6",
"%X c #B68CC4",
"&X c #A698CA",
"*X c #B899CA",
"=X c #B49FD4",
"-X c #BC9BD1",
";X c #A69BD8",
":X c #97A3CB",
">X c #AFA2C8",
",X c #B4A5CC",
"<X c #B9A7C8",
"1X c #A8A5D9",
"2X c #B7A7D6",
"3X c #B5BDDE",
"4X c #A3B0DD",
"5X c #9FA3E0",
"6X c #B9A9E7",
"7X c #A9B4E4",
"8X c #BAB6E5",
"9X c #B7ADF0",
"0X c #C78ACC",
"qX c #C592CC",
"wX c #D19ED6",
"eX c #C7A7D8",
"rX c #D2A5D4",
"tX c #CAAED4",
"yX c #CAABEA",
"uX c #D7ABE8",
"iX c #C5B6E8",
"pX c #D5B9E4",
"aX c #C3BAF5",
"sX c #E6BEF4",
"dX c #BAC3E7",
"fX c #C7C8E7",
"gX c #D6C9E8",
"hX c #D6C9FB",
"jX c #CBD4F2",
"kX c #DDD3FF",
"lX c #C8C9F1",
"zX c #ECDCFE",
"xX c #E7D8F7",
"cX c #F2D3F9",
"vX c #FAE0FF",
/* pixels */
"A A D A $.>Xc U ^ 7.m.OX4XdXjXjXdX3X:X_.m.a.`.[.e.} p t / V l a ",
"d A D D $.+Xc R #.7.l.OX4XdXjXfXfX3X:X_.9.#.5.v.f.o.` ( ' ' ) ' ",
"d A D D P b.v U ! 3.z.@X7XdXjXfXdX3X:X_.8.9.n C v.o.B V / V V p ",
"5 4 d A J d.b R ! 7.z.@X7XdXjXgX3XdX4X_.7.3.b I o.E V m M M V V ",
"d y 4 d D a.R U >.h.z.@X:X3XtXgXfX3X+X`.'.7.~ I C N N B K K ` { ",
"f f D D J a.4.T >.h.z.'.:X<XgXxXzXfX8X9X5X4.! n E E { } { ` K K ",
"- , 4 A J c.x.4.>.h.z.@X1X2XgXcXzXgXxXlXb.~ 5.i.i.0.&. .` K B m ",
"- y 4 4 2 4.7.T >.h.M.#X1X*XtXrXpX<X2X2XT.;XoX[.i.6.` V p r w w ",
"- y y 4 x R 4.3.>.h.z.@X6X{.F.XX}.F.tXpX&XhXoXu.Z M r 9 e e 9 9 ",
"- , 4 4 x c #.7.3.3.M.M.9X$XZ.=.A.F.Y.pX2Xp.E * m w 9 9 9 6 6 $ ",
"- = , 4 2 x R 7.x.>.n.6X6X~.( +.] ] }.Y.K * m Z w 8 9 9 $ $ o + ",
"y = = , 3 v J ~ c.M.l.i.o.C.*.;.;.:.*X0.* N N ; w : 9 7 7 $ $ $ ",
"y , : : , v H Q 6.9.9.E ,.O.!.;.:.rX:.g 1 H L L u ; @ 6 7 $ o o ",
"> y f w : u H P ..C E W.$XB.~.Z.*.*.r  .i.d.J C v : O + 7 $ @ o ",
"* y D u , u L L E E o./.K.(.0XQ.!.r.Y.=Xv.%.b Q v > = q q + @ @ ",
"= : q u a F F F n m p./.p.t.L.~.I.%XyXvX9X5.^ c 2 < : i s o   . ",
"6 6 s [ g g i e : ` E.1.<.K.L.).(.V.~.yXvX5.U Y 2 5 9 l 0 % . # ",
"8 F _ g i s + 9 p |.f.1.@.<.<.K.t.B.Q.).yXi.Y z z * t j h % . # ",
"F g i > i e O M Y.Y.&.p...2.<.<.B.B.J.J.P.u.#.S z < t k h & . # ",
"u u p ; 8 > } U.Y.6.W.k...1.B.2.N.Z.^.).J.g.J S d < t k h & .   ",
"3 : 1 M B { 1X2X6.u.T.,.k.0.2.B.N.N.Q.0XQ.Q.W S n 1 j k h & % . ",
"3 3 < D &.+XzXoXd.v.W p.yXH.O.O.N.N.Z.Q.N.~.e.H 1 r j k h h $ . ",
"< c Q X.e.6X9X/.c.6.,.;XiXr.0.=.+.N.Q.^.J.!.{.%.N V / / j 0 7 @ ",
"A c | 6.m.9X/.c.~ ~ b.#X{.r.r.w.C.J.^.^.C.H.2X[.H B ( ( l 0 7 @ ",
"x Q W X.1X5Xv.>.~ 9.v.#X=X|.|. X^.wXwX0XV.R.U.>X&.; ) ] ] s o 6 ",
"J A c d.aXoX,.C E c.#XiX8X*X-XeXqX0XqXuX XR.r.{.].> p  .a i - q ",
"v c N 1XhX6.C E 8.#XaXhXyX*X-X XF.S.!.eXpX-XP.g.|.| : u O G _ = ",
"x 2 6.kXzXU.C W &X8XiXiX=X|.R.V.w.B.I.R.uXsX-Xr.].U.O O y @ q f ",
"3 < 2XhXiX3X` g.8X3X,X2X&XY.H.w.q.V.I.S.%XeXuX|.s.<X-.- q @ O q ",
"3 &.2X,XD.].Y.,X,X>X&X,X$XV.t.w.V.q.V.I.~.V.%XpXs.<XzX_ X q q + ",
"H s.D.Y.g.F.fX>X>X<X*X2X~.p.y.y.B.w.q.I.I.w.%XsXpX}.gX.X_ q 6 g ",
"B | <X.X]..X<XtX<X2X2XeX$XH.H.B.B.H.V.C.J.I.0XrXcX}..XgX-.g _ ) "
};
