/* XPM */
static char *_b7332232ed0446485ed5a1114dcf903DOwtdeBKxNneFPpd[] = {
/* columns rows colors chars-per-pixel */
"32 32 244 2 ",
"   c #3C3C22",
".  c #16512D",
"X  c #14613D",
"o  c #2C6231",
"O  c #284A2F",
"+  c #4D5933",
"@  c #5A7135",
"#  c #77712B",
"$  c #6A4731",
"%  c #045A49",
"&  c #025A50",
"*  c #0D674A",
"=  c #1A715B",
"-  c #276E49",
";  c #277B4D",
":  c #35734B",
">  c #2B7C58",
",  c #377B52",
"<  c #3F7E69",
"1  c #5A514A",
"2  c #42744B",
"3  c #57764D",
"4  c #737446",
"5  c #6F7455",
"6  c #8B7532",
"7  c #814E4A",
"8  c #8E6353",
"9  c #8B686F",
"0  c #A86F66",
"q  c #588C39",
"w  c #31964F",
"e  c #268951",
"r  c #26965C",
"t  c #339A53",
"y  c #399C56",
"u  c #359D5A",
"i  c #3B9D5A",
"p  c #359454",
"a  c #318449",
"s  c #1EB450",
"d  c #2DAC4F",
"f  c #36A35B",
"g  c #3DA35C",
"h  c #3CAB5D",
"j  c #3AA556",
"k  c #2ABD55",
"l  c #3A9E61",
"z  c #28AA64",
"x  c #3CA462",
"c  c #3CAA63",
"v  c #3AAC69",
"b  c #3AB669",
"n  c #3DB676",
"m  c #589146",
"M  c #4C8457",
"N  c #479A58",
"B  c #509855",
"V  c #568D50",
"C  c #629246",
"Z  c #678A58",
"A  c #7A8251",
"S  c #72904C",
"D  c #41A45C",
"F  c #4AA35C",
"G  c #44A95C",
"H  c #4BAC5C",
"J  c #45A453",
"K  c #54AC5E",
"L  c #56A555",
"P  c #45B35A",
"I  c #4EAE54",
"U  c #65AB5C",
"Y  c #78B35F",
"T  c #78A854",
"R  c #489D63",
"E  c #51946E",
"W  c #609C60",
"Q  c #618C70",
"!  c #43A562",
"~  c #4AA463",
"^  c #43AB63",
"/  c #4AAC65",
"(  c #44AC6A",
")  c #4CAD6B",
"_  c #46A56A",
"`  c #53AC64",
"'  c #53AC6B",
"]  c #58A768",
"[  c #46B264",
"{  c #4BB266",
"}  c #44B36B",
"|  c #4CB36A",
" . c #44B96C",
".. c #4DB96C",
"X. c #48BB67",
"o. c #52B46D",
"O. c #5BB56A",
"+. c #54BA6D",
"@. c #59B766",
"#. c #41AC71",
"$. c #48AD71",
"%. c #43B672",
"&. c #4AB372",
"*. c #4FB57A",
"=. c #49BB75",
"-. c #54B571",
";. c #53BA72",
":. c #5BBB75",
">. c #56B678",
",. c #54AB74",
"<. c #67A865",
"1. c #79AC63",
"2. c #63B463",
"3. c #6BB76A",
"4. c #78B565",
"5. c #62AA7A",
"6. c #75BA77",
"7. c #60BC7D",
"8. c #36C36B",
"9. c #5AC179",
"0. c #4DC26E",
"q. c #66C277",
"w. c #74C578",
"e. c #7ACD6B",
"r. c #87873E",
"t. c #998C3F",
"y. c #998D32",
"u. c #B08F3E",
"i. c #A89B3B",
"p. c #8C894C",
"a. c #878547",
"s. c #938742",
"d. c #999949",
"f. c #959756",
"g. c #899352",
"h. c #AC9C4D",
"j. c #A99947",
"k. c #B59D49",
"l. c #A89C58",
"z. c #A99150",
"x. c #8CA75B",
"c. c #B5A24B",
"v. c #B7AD4B",
"b. c #A6A857",
"n. c #BBA554",
"m. c #B5A359",
"M. c #B8AB55",
"N. c #BEBA5D",
"B. c #A5A956",
"V. c #869962",
"C. c #978F6C",
"Z. c #B29875",
"A. c #89A769",
"S. c #9CB967",
"D. c #85BB7A",
"F. c #96BC7A",
"G. c #86B16C",
"H. c #A7A668",
"J. c #B8A866",
"K. c #A9B866",
"L. c #B9B765",
"P. c #BEAE77",
"I. c #B1B175",
"U. c #D4AA5C",
"Y. c #CAB45E",
"T. c #C7BC58",
"R. c #CDAE50",
"E. c #DB986F",
"W. c #C9B865",
"Q. c #D9BC63",
"!. c #D9B475",
"~. c #C8A96F",
"^. c #E7B360",
"/. c #98C17A",
"(. c #95D578",
"). c #8DC66E",
"_. c #B9C967",
"`. c #AEC179",
"'. c #B0C870",
"]. c #D0CA57",
"[. c #ECE45B",
"{. c #C8C564",
"}. c #DDCC62",
"|. c #D6C46B",
" X c #D4C667",
".X c #DAD462",
"XX c #DDD56A",
"oX c #DAD869",
"OX c #CAC87C",
"+X c #DBCA72",
"@X c #D6C377",
"#X c #D9D675",
"$X c #CBD670",
"%X c #E2CC6B",
"&X c #E9C668",
"*X c #E7D966",
"=X c #E5CE77",
"-X c #E4D574",
";X c #ECDD77",
":X c #E9DD7B",
">X c #F9D977",
",X c #F2CB6E",
"<X c #E3E976",
"1X c #FBE778",
"2X c #E7F274",
"3X c #EBE06D",
"4X c #58B684",
"5X c #66B286",
"6X c #59C782",
"7X c #6DCA88",
"8X c #B3998A",
"9X c #8FBE86",
"0X c #B7B687",
"qX c #A4AF84",
"wX c #D0B683",
"eX c #C28BA0",
"rX c #DFADB0",
"tX c #8CC787",
"yX c #A3C483",
"uX c #B4DA85",
"iX c #B3CE8B",
"pX c #BBE790",
"aX c #D7C88C",
"sX c #C9D788",
"dX c #D9D788",
"fX c #CFD091",
"gX c #E8D886",
"hX c #FFD983",
"jX c #F0D195",
"kX c #CBE28A",
"lX c #DFE687",
"zX c #D1EC98",
"xX c #D7F698",
"cX c #F7E987",
"vX c #FEF489",
"bX c #F9EA95",
"nX c #FDFB9C",
"mX c #FBF792",
"MX c #E9EE8D",
"NX c #FFCFA1",
"BX c #FFD9A1",
"VX c #FFF5A8",
"CX c #FBFBB4",
"ZX c #F2E6A7",
/* pixels */
"] c 8.( M Q 4Xz v } ' ' -.&.} %.H o.} ! R ] o.X.P O.] ] ] 6X( ..",
"~ X.0._ : O 2 6.) c ^ ( _ ) :.+...~ ~ ' ;.9.O.] Q o W 6.5X9.| @.",
"j X.X.*.M O + ZXiX3.v n x _ / j } ' ] ~ h P ).'.1 + 9X6.{ 9.o.2.",
"P G D 4X4X: 4 BXVXuXq.0.*.,.) ..! :.:.J I (.xXnX$ H.fXx.L 9.' o.",
"0.F N #.n l Z l.>XMXuXK ' ] ~ ;.B G d J ).cXbX-Xk.=X#X_.x.O. .%.",
"O.F y g z v L m i.MXkX4.1.6.tXtXyX2.P 4.aXhX&XT.oX;X.XxXY ` 6Xb ",
"_ _ H G c &.&.` q S.dXdXsXxXCXCXCXzXpXsX=X&X%XoX*XoX#X'.<.-.6X[ ",
"#...P K ] ~ x b &.V ~.nXmXMXvXhXVXCXVXbX+X{.XX<X>X{.K.K 7X=./ 2.",
"/ G G / o.o.' ' d A.gX2X1XbXgX1XvXvXVXCXcX[.*XaXq.K H ` +./ / ) ",
"G G / o.;.o.) | n iXaXA P.jXmXcXcXbX`.sXnX-X).Y 2.K I @.+.+.-.-.",
"G ^ { ....^ ^ ( v fXP.  C.dX2X;X1XfX+ d.nXiX` k H H { { +.;.O.-.",
"| | / ^ [ c [ } ` OXQ.a.aXcX2XmXnXjXz.~.ZXF.u b P { ..{ [ | / ~ ",
"{ / ^ [ | ;.....6.Z.!.XX*X=Xl.~.lX1XnXNXjXI.B $.{ +...[ ^ ^ G G ",
"[ } [ / ....{ G 5X9 0 {.R.~.9 $ Q..XvX!.E.jXS.f ;.o...| [ c ^ ~ ",
"} } ^ G ~ ` / ! 5X9 8 f.h.wX8XeX>XoXoXR.E.jX/.j q.>./ | ^ h ^ { ",
"v ( ( g D O.6.w.6.8 6 4 a.h.J.rX].W.U.U.W.qX9X(.7X:.) / ^ j j ^ ",
"h [ h y 2.'.1X>XbXgX{.8 # 6 r.j.j.c.Y.W.#X#XoX;X,X'.2.{ / / [ b ",
"h c c G U S.|.,X%X;X<X@XJ.m.h.j.N.W.=X|.|.|.W.|.{.S.O. .| o... .",
" .b b } ` T d.M.].}.XXQ.Y.W.|.=X+XXX|.k.u.k.h.m.S.4...%...o...} ",
"X.X. .v D B C S y.i.c.n.W.Q.XX-X-X+XT.y.6 d.g.x.4.` } %.&.{ | } ",
"F / | c c ^ F B a.a.a.h.L. X{.].%X%X Xv.v.K.1.K 2.o.%.%. .^ / ..",
"N ' ) ! x ( ) g 0XC.p.d.M.W.{._.&X%XoX X#XkXw.b 0.&.$.&...[ { ) ",
"~ / ) v x i ! / 0XH.l.m.W.L.N.K.&X}..X}.gXsX6. .0.@.) ) { [ [ ) ",
"h f x ^ R p N 5.W.v.j.c.c.h.H.I.}.]..X*XhXgXG.` P H R ` { [ [ ( ",
"j w D i i i B D.R.H.H.R.c.g.x.R.T.{.oX#X#X$X/.K ^ D D / ) ) / D ",
"G g ~ l u N B 5.n.H.f.c.n.g.A m.N.Q.&XoX$XOXF.h o./ i i y y y y ",
"j D ~ i u ^ N ] p.H.l.u.z.A 4 f.B.U.^.{.'._.4.s h i i D ! g i y ",
"u g ! u u } ) ~ 5 A s.t.p.3 3 Z q r.z.d.K.K.3.8.w w t g ! ! G ! ",
"x x R u u } *.i < + # g.Z 2 - - M B m r.f.1.^ n ^ i t w w t g ^ ",
"n _ i l z &.*.e = Z H.1., , > X E n / V.H.3.x R / ^ g f t t f ^ ",
"x u p x c &.>.; & F.sXV * = > * - r N 1.yX7X..&.h ! ^ | ! g f G ",
"r e a ! _ =.4X; & V.s.. & * * > - a a m 4.3.I [ ^ ! ^ c f t f ! "
};
