/* XPM */
static char *c48da56c78ea4d2ba62abb051d3d7338ElBjgBsuLpCFSXJ9[] = {
/* columns rows colors chars-per-pixel */
"32 32 196 2 ",
"   c #0F1119",
".  c #19161C",
"X  c #191D29",
"o  c #3B1F22",
"O  c #1F202A",
"+  c #192235",
"@  c #282225",
"#  c #22242E",
"$  c #2A2528",
"%  c #282935",
"&  c #352A30",
"*  c #3C3433",
"=  c #3A353B",
"-  c #4B1B1F",
";  c #4E1C20",
":  c #442728",
">  c #51262C",
",  c #433433",
"<  c #443836",
"1  c #483836",
"2  c #4C3B35",
"3  c #593739",
"4  c #65363D",
"5  c #75333B",
"6  c #242E42",
"7  c #373B4A",
"8  c #323C52",
"9  c #433E42",
"0  c #4C3B48",
"q  c #553C47",
"w  c #773D44",
"e  c #3B4869",
"r  c #474144",
"t  c #4E4442",
"y  c #4A464B",
"u  c #4A454C",
"i  c #564645",
"p  c #534D4D",
"a  c #5B4E4C",
"s  c #5C524E",
"d  c #434351",
"f  c #494454",
"g  c #4C4A54",
"h  c #544E51",
"j  c #4D505A",
"k  c #565152",
"l  c #5C5452",
"z  c #54515A",
"x  c #5C5858",
"c  c #694245",
"v  c #7E4A4C",
"b  c #6F564C",
"n  c #674C55",
"m  c #605653",
"M  c #665B55",
"N  c #6C5D56",
"B  c #635758",
"V  c #645B59",
"C  c #6C5F5C",
"Z  c #795A59",
"A  c #6D615A",
"S  c #72645C",
"D  c #79625B",
"F  c #79695D",
"G  c #444C69",
"H  c #504661",
"J  c #5A5965",
"K  c #435075",
"L  c #545B76",
"P  c #655867",
"I  c #745470",
"U  c #6C6365",
"Y  c #6E6668",
"T  c #726664",
"R  c #796261",
"E  c #746A66",
"W  c #7B6D64",
"Q  c #756A68",
"!  c #7A6E69",
"~  c #7E7066",
"^  c #7E716B",
"/  c #696974",
"(  c #726976",
")  c #747078",
"_  c #983944",
"`  c #89414A",
"'  c #93444E",
"]  c #9B424D",
"[  c #884853",
"{  c #954A59",
"}  c #8B5459",
"|  c #98575C",
" . c #A7424D",
".. c #AC424D",
"X. c #AD4250",
"o. c #B14552",
"O. c #B54C5A",
"+. c #A5545C",
"@. c #B6505E",
"#. c #856A5C",
"$. c #90725A",
"%. c #925C65",
"&. c #BB5462",
"*. c #B75B67",
"=. c #BB5966",
"-. c #B35D69",
";. c #856A63",
":. c #986861",
">. c #847265",
",. c #887767",
"<. c #84756B",
"1. c #89756A",
"2. c #8D7A6C",
"3. c #927D6C",
"4. c #997A68",
"5. c #866776",
"6. c #857878",
"7. c #947D75",
"8. c #BA606E",
"9. c #A6776C",
"0. c #B16777",
"q. c #B76B73",
"w. c #C05A66",
"e. c #C25F6C",
"r. c #C7616E",
"t. c #C66471",
"y. c #C96472",
"u. c #CA6876",
"i. c #C46A78",
"p. c #CE6E7C",
"a. c #CE707F",
"s. c #D1717F",
"d. c #95806F",
"f. c #99816E",
"g. c #968171",
"h. c #978271",
"j. c #998271",
"k. c #9A8471",
"l. c #A78A76",
"z. c #AE8872",
"x. c #B3927D",
"c. c #7C788B",
"v. c #5E6EB3",
"b. c #6977B9",
"n. c #8B5C83",
"m. c #87768A",
"M. c #907188",
"N. c #D16F80",
"B. c #CE7281",
"V. c #C67589",
"C. c #D17181",
"Z. c #D37583",
"A. c #D27886",
"S. c #C97E93",
"D. c #7687A8",
"F. c #6883C8",
"G. c #8B878E",
"H. c #88869A",
"J. c #948599",
"K. c #AF9086",
"L. c #AF8A9F",
"P. c #BEA593",
"I. c #9A8FAC",
"U. c #8B92AE",
"Y. c #9696AA",
"T. c #8D99B6",
"R. c #9698B9",
"E. c #AB8BA6",
"W. c #A298A6",
"Q. c #AB98B1",
"!. c #BD9EB5",
"~. c #ABA6B3",
"^. c #ACA9B9",
"/. c #B5A6BB",
"(. c #C59A83",
"). c #CA8395",
"_. c #D28D9D",
"`. c #D4A686",
"'. c #CAAB98",
"]. c #D3AA92",
"[. c #DB97A6",
"{. c #D1ACB7",
"}. c #DDB0BE",
"|. c #E0B0BF",
" X c #D6C3BB",
".X c #ECC9B1",
"XX c #A2A6C5",
"oX c #A3A8C2",
"OX c #B2ACC9",
"+X c #AAB2CE",
"@X c #BBB8C8",
"#X c #BAB3D2",
"$X c #C7C6D4",
"%X c #F3D5C2",
"&X c #DBDAE7",
"*X c #E0DDEE",
/* pixels */
"W F F W 2.d.,.S M s i 0 q 0 0 q n N M l y 0 r p l A W d.k.f.j.f.",
"2.2.2.3.d.k.,.A s i w ` ' ' ' ' | } N M m s s l M S >.d.k.j.j.k.",
"k.f.k.f.j.j.<.m * & w *.y.r.r.y.=.| } } Z C C A A W 3.d.j.j.j.j.",
"3.2.2.2.2.2.N 2 1 4 [ i.s.s.N.u.r.=.*.+.} Z Z S F >.2.3.2.2.3.3.",
">.W >.W <.W t : [ 0.i.N.s.C.C.y.&.e.p.t.&.+.| W W W W ;.W W >.! ",
"Q Q E E T B , : | B.C.C.a.s.s.y.@.e.s.p.u.t.8.| R T T T E E Q Q ",
"^ ^ ! ! T i : 5 -.N.a.s.C.C.s.y.&.r.p.B.s.s.u.-.} R W W Q Q W ^ ",
"2.2.2.3.W 1 ; ] y.a.B.B.C.C.C.y.&.r.a.C.s.s.s.u.-.| ;.2.2.2.2.2.",
"g.d.d.k.,.2 - _ r.u.s.s.s.s.s.r.@.w.p.s.N.B.N.N.p.*.:.4.3.f.j.g.",
"k.k.f.l.2.2 ; _ O.r.u.a.a.s.Z.Z.u.a.Z.a.N.N.N.B.N.u.| D 3.k.k.k.",
"f.f.d.k.,.2 - _ o.O.@.=.y.a._.|.}.|.[.A.p.a.N.N.Z.p.v 3 #.f.f.d.",
"d.2.2.d.F 2 ; _ o.....o.=.S./.oXXX^.!._.Z.p.N.N.s.=.4 : F d.2.2.",
"~ ~ ~ ^ F * - _ o.o.X.O.0.E.U.D.D.D.U.E.).S.S.S.V.{ > < A ~ ~ ~ ",
"U U U ! S * o 5 ]  .X.-.L.U.U.XX+X+XT.Y./.{.E.E.M.q 1 l E S U Y ",
"U U Y E E l * o 3 w _ %.I.R.R.OX#X#XXXR.Q.J.5.P u 9 x E E Y U U ",
"^ ^ <.~ <.^ t . & q i H ( c.I.I.J.I./.Y.) n c 4 i A <.<.<.<.^ ^ ",
"g.g.k.f.d.d.i . % d d d f J k.k.Y 7.{.H.0 3 v b #.7.j.g.g.g.g.g.",
"f.k.k.k.k.f.m $ % 7 7 7 g >.(.l.W l.{.Y.V ;.9.4.4.k.k.f.k.k.k.k.",
"k.k.k.k.k.f.<.s % X # 7 g 4.(.(.x.'..X X'.'.].z.f.d.j.k.f.k.k.k.",
"k.k.f.k.k.k.k.2.a @ . $ 7 C z.`.`..X.X%X.X.X].x.l.f.k.k.k.k.k.g.",
"2.2.2.2.2.2.2.;.N l k j U ) >.$.f.z.K.'.'.P.l.d.2.2.2.2.2.3.2.3.",
"~ Q E E T Q Q l < / ^.^.~.W.( s M M R 5.3.>.W F T T E U E E Q W ",
"E E U U U U Y p $ g ~.&X$XD.J G.Y./ J m.J.) ! E U U U U U U E E ",
"! ! Q Q Q Q Q l @ % c.&X@Xz % H.XXD.L c.^.Q.G.E T E Q E E E ! ! ",
"1.2.2.1.<.1.6.N $ y Y.*X$Xk X K F.F.e J ~.~.^ <.1.1.,.<.<.<.1.<.",
"g.g.g.g.g.g.g.S * J @X&X^.j + e v.b.G z G.( l >.d.3.d.d.g.7.g.g.",
"k.k.k.k.k.3.,.A t y D.W./ 8 8 H I n.5.R l 1 i F 3.f.f.k.j.k.j.j.",
"k.g.g.g.d.>.S M s 9 2 y O 6 e i _ q.(.g.t r M A W 3.f.k.j.j.j.j.",
",.,.,.<.W A m l s s r @   6 G H I K.K.Q p k x l A F ,.d.2.2.2.2.",
"T Y Y S V l l k p k p = O 6 e e e L d = r k k k p s A E ! Q E T ",
"U U Y U x k k k k k k h 9 % + + + + # = y k k k k k V E E U U P ",
"Q Q Q E x k l k k k k l p 7 $ @ @ @ * y p k k k k k V Q Q Q Q Q "
};
