/* XPM */
static char *_e883f8992ac4aaeb6753146285f5405MYMH3Q9a5btYOkfx[] = {
/* columns rows colors chars-per-pixel */
"32 32 197 2 ",
"   c #1F1516",
".  c #241A19",
"X  c #371B1D",
"o  c #161B29",
"O  c #1D222E",
"+  c #1C2637",
"@  c #282325",
"#  c #2D2C2D",
"$  c #3C2324",
"%  c #382C2A",
"&  c #262A37",
"*  c #332F31",
"=  c #3B3739",
"-  c #3A343B",
";  c #461E21",
":  c #47292B",
">  c #56262A",
",  c #42352D",
"<  c #493329",
"1  c #572B33",
"2  c #4B3432",
"3  c #473B37",
"4  c #533B35",
"5  c #52383A",
"6  c #722E36",
"7  c #792D35",
"8  c #4F4337",
"9  c #4C423C",
"0  c #5C433A",
"q  c #5B493D",
"w  c #1D274A",
"e  c #272C48",
"r  c #3B3A4B",
"t  c #2C3750",
"y  c #3A3C50",
"u  c #4C3D45",
"i  c #5D3C46",
"p  c #643F47",
"a  c #633D4C",
"s  c #683E4C",
"d  c #7A3F49",
"f  c #3F404F",
"g  c #3C4153",
"h  c #3E4358",
"j  c #374965",
"k  c #3E4B64",
"l  c #3C4C6A",
"z  c #4C4544",
"x  c #494448",
"c  c #574B44",
"v  c #5D4B43",
"b  c #51474A",
"n  c #544C4C",
"m  c #594C4B",
"M  c #5D534B",
"N  c #43455A",
"B  c #544854",
"V  c #555151",
"C  c #5C5453",
"Z  c #5F5956",
"A  c #66464A",
"S  c #63564D",
"D  c #6A564D",
"F  c #69584E",
"G  c #7C574D",
"H  c #754751",
"J  c #605554",
"K  c #635A56",
"L  c #6D5A50",
"P  c #655B5A",
"I  c #6B5D5A",
"U  c #755955",
"Y  c #755D59",
"T  c #67615E",
"R  c #6D615B",
"E  c #756358",
"W  c #74645C",
"Q  c #76695F",
"!  c #7B695D",
"~  c #424D65",
"^  c #4D4D67",
"/  c #534D66",
"(  c #49546C",
")  c #55556C",
"_  c #445676",
"`  c #595377",
"'  c #545B74",
"]  c #5C5D72",
"[  c #6B5374",
"{  c #5A6178",
"}  c #6D6364",
"|  c #726665",
" . c #746965",
".. c #7B6C65",
"X. c #756A68",
"o. c #7A6E69",
"O. c #7F7067",
"+. c #7D7169",
"@. c #686979",
"#. c #7C6678",
"$. c #822F39",
"%. c #943C47",
"&. c #A83F4B",
"*. c #884248",
"=. c #99424C",
"-. c #974E53",
";. c #994E56",
":. c #875C59",
">. c #985A5A",
",. c #A3434D",
"<. c #AD434E",
"1. c #B3464F",
"2. c #AE4351",
"3. c #A64C57",
"4. c #B14551",
"5. c #B44956",
"6. c #B54E5B",
"7. c #B94F5D",
"8. c #A55D5F",
"9. c #B6515B",
"0. c #B9525F",
"q. c #846759",
"w. c #916D5A",
"e. c #A0625E",
"r. c #835966",
"t. c #A95D62",
"y. c #BA5461",
"u. c #B95966",
"i. c #BC5A65",
"p. c #896C64",
"a. c #837264",
"s. c #8C7366",
"d. c #847469",
"f. c #8A776A",
"g. c #87786D",
"h. c #8C7A6C",
"j. c #9B7768",
"k. c #927D6D",
"l. c #926D70",
"z. c #937E74",
"x. c #B7656D",
"c. c #A2726E",
"v. c #C35E6C",
"b. c #C5616D",
"n. c #C66472",
"m. c #C96673",
"M. c #C46974",
"N. c #C96976",
"B. c #CD6B79",
"V. c #D1717E",
"C. c #96816E",
"Z. c #99826E",
"A. c #99836F",
"S. c #968271",
"D. c #9A8371",
"F. c #998471",
"G. c #536182",
"H. c #59649C",
"J. c #646A85",
"K. c #6B6E83",
"L. c #6F748B",
"P. c #757588",
"I. c #7B7A8D",
"U. c #7B7D94",
"Y. c #536CB6",
"T. c #5C73B9",
"R. c #6872AD",
"E. c #9D7381",
"W. c #D17281",
"Q. c #D17481",
"!. c #7C809D",
"~. c #7986B9",
"^. c #7890DD",
"/. c #97828A",
"(. c #838496",
"). c #A58886",
"_. c #AE8A8C",
"`. c #898FA6",
"'. c #9897AA",
"]. c #8D95BA",
"[. c #AC9CAC",
"{. c #B0AEBF",
"}. c #C09792",
"|. c #CDABA4",
" X c #8496DA",
".X c #93A1D5",
"XX c #9AA8D9",
"oX c #B7B6C8",
"OX c #A0ACDF",
"+X c #8A9EE3",
"@X c #92A2E1",
"#X c #A8B4E4",
"$X c #B2B9E3",
"%X c #C4B7C7",
"&X c #C7C7DD",
"*X c #C9CBE6",
"=X c #D3D2E6",
/* pixels */
" .Q  .Q Q ! Q Q ! Q Q Q Y U G U U U U U Y Q  . .Q Q d.A.h.W C V ",
"h.h.h.f.f.h.h.h.k.s.s.p.>.-.-.;.;.;.;.;.-.p.s.s.f.f.k.A.f.R P J ",
"D.D.D.A.D.D.D.F.z.c.t.t.i.b.v.v.v.v.b.v.u.t.>.j.j.A.A.A.f.W I I ",
"k.k.k.k.k.k.h.k.p.8.t.i.N.V.V.V.W.W.W.W.B.v.y.t.p.k.k.k.d...E | ",
"+.+.O.a...a. .D G t.N.B.M.n.n.n.n.n.n.n.n.B.B.x.:.D E o.o.......",
" .o.o.X.X.} m 2 d x.N.n.i.0.0.y.7.v.7.7.y.v.N.M.;.2 3 P |  . ...",
"+.+.+.+.o.C : 1 =.y.y.y.v.v.b.v.v.v.v.v.v.v.7.y.3.A $ 9  .+.o.o.",
"C.h.h.h.k.M $ 7 4.6.y.v.N.W.W.V.B.V.W.V.B.v.v.5.4.%.; , a.k.h.h.",
"S.S.F.A.A.S $ 7 1.6.v.B.W.W.W.W.Q.Q.Q.Q.Q.B.m.y.5.%.; < h.D.A.A.",
"S.S.A.A.A.Y < 6 ,.<.9.b.m.m.M.m.N.N.N.N.N.m.i.5.&.$.: 0 k.D.A.A.",
"C.C.C.A.A.k.L > $.<.1.5.6.6.6.6.6.6.6.6.6.6.5.2.%.> 2 ! C.A.A.A.",
"f.h.h.h.s.k.E < 6 ,.1.<.<.4.&.2.&.&.<.2.2.<.2.2.$.X 3 h.h.f.f.f.",
"....X.X.O.R 8 0 7 ,.2.4.4.4.4.2.5.4.4.4.4.2.4.2.*.0 8 F ! +.O.Q ",
"} } } } | 9 < q.e.=.%.,.<.4.4.4.4.4.1.4.4.,.=.*.>.j.q = R  .} } ",
"|  .| X.X.n , G q.p i d =.,.,.,.,.,.,.,.=.*.A 4 G w.q 8 } o. .} ",
"g.g.g.g.g.+.F 8 : - N B a a s s s s s s a b ^ f $ < q Q g.h.g.g.",
"F.F.F.F.D.F.h.v @ = { { l h f N u g g N k ( @.B @ = ! C.F.F.F.S.",
"D.D.F.F.D.S.F.g.M 8 Q I.L.{ ~ l l ~ h ( @.I.S.W q E F.F.F.F.F.S.",
"F.D.F.F.F.D.S.F.k.v 2 q.).I.G.l j l _ K./.F.q.G a.A.F.C.F.F.F.F.",
"S.S.k.C.S.S.S.S.A.c * m | P.' e o o ~ I.#.I u 4 q.A.A.A.A.A.S.S.",
"d.d.d.d.a.o.a. .c r ' L.] ) ^ * o & N ] ) @.J.N z E a...+.O.a.d.",
"}  . .| } } P u e _ ].].@.@.I.U.J.K.(.@.{ `. XH.r = B } } } }  .",
"....X.X.X.} } B l H.R.`.I.'.&X#X^.XX&X{.(.(.~.R.` x m } | }  . .",
"d.d.d.d.l.Y Y E.E.E.( ` `.*X*X@X^.^.$X=X{.K.( [ E._.l.I o.d.O.O.",
"C.C.C.S.k.L v _.|.c.B / '.=X$X^. X X.X*XoXJ.u U _.|.q.v a.Z.k.k.",
"S.S.C.A.S.a.S M E A 5 H [.*X#X XXX@X.X&X%XE.1 4 R W M U k.A.A.F.",
"S.F.C.A.A.S.a.8 @ . X a /.oX#X+X@X+X@X&X[.r.:   . % F k.F.F.F.Z.",
"h.h.h.C.h.C.d.K B # . r ] !.~.T.Y.T.~.`.@.B @   = m ! h.Z.k.k.k.",
"| |  . . .Q K Z Z = O t j g t e w w e g k j & @ z Z K W o.O.o.X.",
"} } } } | T V V V z * + + & * # * # # # w + & = b V V P  .| } } ",
"X.X.X.X...T Z V C V x * @ = n V V V V x # @ = n V V V P | X.X.X.",
"d.d.d.g.g...K V C C C n n C Z Z C C C V b z n C C V C R d.d.O.d."
};
