/* XPM */
static char *_937eb90a1f3480fcf56f828ce558093O7s1stFCfhMCpFk5[] = {
/* columns rows colors chars-per-pixel */
"32 32 211 2 ",
"   c #191718",
".  c #201F1F",
"X  c #1B1C26",
"o  c #1C1D24",
"O  c #1F2022",
"+  c #1C263A",
"@  c #222121",
"#  c #25242A",
"$  c #2C2628",
"%  c #382C28",
"&  c #39302D",
"*  c #222A35",
"=  c #272B39",
"-  c #383435",
";  c #3E3A3D",
":  c #47292B",
">  c #43342D",
",  c #4E342D",
"<  c #582C32",
"1  c #443534",
"2  c #4D3B35",
"3  c #473938",
"4  c #563733",
"5  c #553D3C",
"6  c #5B3C3B",
"7  c #662D35",
"8  c #63313C",
"9  c #4D423D",
"0  c #51433C",
"q  c #5C433B",
"w  c #5C4A3E",
"e  c #624B3D",
"r  c #1E2B42",
"t  c #242C46",
"y  c #283246",
"u  c #2C3C52",
"i  c #3A3C52",
"p  c #483941",
"a  c #553542",
"s  c #5D3A48",
"d  c #5E3C50",
"f  c #643B4B",
"g  c #743D46",
"h  c #3E4968",
"j  c #3F5472",
"k  c #4A4344",
"l  c #534345",
"z  c #524A46",
"x  c #5B4C45",
"c  c #534B4B",
"v  c #59504A",
"b  c #5E524C",
"n  c #464658",
"m  c #594854",
"M  c #595256",
"N  c #5C5554",
"B  c #5D5854",
"V  c #674847",
"C  c #734A4B",
"Z  c #68564E",
"A  c #765049",
"S  c #684859",
"D  c #7A4456",
"F  c #625753",
"G  c #625954",
"H  c #6A5A54",
"J  c #645B5A",
"K  c #68585B",
"L  c #7B5A56",
"P  c #6E625B",
"I  c #73645C",
"U  c #7B645C",
"Y  c #7A6A5C",
"T  c #444963",
"R  c #544961",
"E  c #5F5073",
"W  c #654C68",
"Q  c #68576D",
"!  c #7A5769",
"~  c #6D6463",
"^  c #726663",
"/  c #7C6462",
"(  c #756965",
")  c #7B6C65",
"_  c #796469",
"`  c #756A68",
"'  c #7B6D69",
"]  c #7F7066",
"[  c #7F726C",
"{  c #67657A",
"}  c #726777",
"|  c #933C47",
" . c #874349",
".. c #8B434D",
"X. c #92424E",
"o. c #854452",
"O. c #8C4B5A",
"+. c #944A57",
"@. c #865759",
"#. c #87545B",
"$. c #8A555C",
"%. c #92575C",
"&. c #A7424D",
"*. c #AC4653",
"=. c #AA4854",
"-. c #A24B58",
";. c #AB4C5B",
":. c #B44B57",
">. c #A3545C",
",. c #B1535E",
"<. c #B9525E",
"1. c #89695A",
"2. c #956A5B",
"3. c #8A5762",
"4. c #A75963",
"5. c #B45462",
"6. c #BA5462",
"7. c #B35963",
"8. c #BC5966",
"9. c #BE5A68",
"0. c #826464",
"q. c #8B6D65",
"w. c #827165",
"e. c #84756C",
"r. c #8B766B",
"t. c #87796F",
"y. c #8D7A6B",
"u. c #957566",
"i. c #9A7164",
"p. c #927D6D",
"a. c #836C76",
"s. c #946B70",
"d. c #857774",
"f. c #8C7D72",
"g. c #937F71",
"h. c #9D7C7B",
"j. c #B16E74",
"k. c #C05864",
"l. c #C15E6A",
"z. c #C4626E",
"x. c #C8626E",
"c. c #C66472",
"v. c #C96673",
"b. c #CC6976",
"n. c #C36B78",
"m. c #CD6D7A",
"M. c #D06D7B",
"N. c #CF717E",
"B. c #D0717F",
"V. c #95816F",
"C. c #99826E",
"Z. c #958172",
"A. c #9A8471",
"S. c #9A8778",
"D. c #AC8C7A",
"F. c #BC927B",
"G. c #C0927A",
"H. c #505E8D",
"J. c #5B688D",
"K. c #5A6895",
"L. c #62648C",
"P. c #626B8E",
"I. c #736B86",
"U. c #5E70A8",
"Y. c #717BA6",
"T. c #8F7589",
"R. c #8D7C94",
"E. c #BA7482",
"W. c #B4748A",
"Q. c #CF7180",
"!. c #D17180",
"~. c #D17280",
"^. c #8F8A91",
"/. c #B28C8F",
"(. c #A69595",
"). c #B9989A",
"_. c #858EA7",
"`. c #9298B4",
"'. c #BA9AAE",
"]. c #AA9CB2",
"[. c #ACA4B1",
"{. c #B5A3B4",
"}. c #D38D9C",
"|. c #CCA28B",
" X c #D4AA8D",
".X c #D0A992",
"XX c #D3AC97",
"oX c #E4B69C",
"OX c #C78FA1",
"+X c #D798A5",
"@X c #C4A7A8",
"#X c #D6B5A4",
"$X c #C4ADB3",
"%X c #DEC3B4",
"&X c #E3C4AE",
"*X c #E4C5B2",
"=X c #EBC7B1",
"-X c #F1CBB3",
";X c #F0D1BD",
":X c #8B9DCF",
">X c #96A4CF",
",X c #BABECE",
"<X c #ACAFD0",
"1X c #CAB9C4",
"2X c #C5B0CB",
"3X c #D1C2C6",
"4X c #D9C4D2",
"5X c #EAC8D3",
"6X c #E0D2D8",
"7X c #D3D3E5",
"8X c #DCDDF1",
/* pixels */
"r.r.y.y.r.y.e.Y ^ ^ L @.@.@.$.$.@.#.#.L U ` ` ^ ^ ^ w.y.p.p.y.y.",
"] ] ] ) ) ) ) ) ) 1.3.4.7.7.,.<.7.,.,.>.3.0./ ) ) ) ) ) w.) w.w.",
"` ` ^ ~ ~ ^ P L %.>.,.z.b.v.b.b.M.M.v.c.7.>.3./ ^ ^ ~ ~ ^ ` ` ` ",
"` ` ` ~ ~ ~ K L >.z.b.b.b.N.B.B.M.B.m.m.v.c.4.@.J ~ ~ ~ ~ ~ ~ ` ",
"d.[ e.[ ' F 6 +.n.N.b.z.8.8.8.9.9.9.8.l.b.!.n.$.l b [ [ [ [ e.[ ",
"S.Z.Z.V.U 5 7 -.z.c.l.<.<.6.6.<.6.6.5.6.l.c.c.+.< 2 P V.Z.Z.Z.Z.",
"S.S.S.r.0 < X.7.6.:.6.x.b.b.b.b.v.b.v.c.6.:.<.9...: 2 w.S.A.S.A.",
"V.V.A.w.> 8 E.+Xn.5.x.B.N.N.!.B.!.!.!.Q.x.<.j.}.j.< % ) A.C.C.C.",
"y.y.V.Y & V $X5X}.b.M.!.B.N.B.!.!.!.Q.!.m.c.OX5X@XV > Y p.y.y.y.",
"] ] ] P 9 J ].4X+X!.!.!.N.B.B.!.!.!.Q.Q.m.m.+X3X[.Q 9 I ) w.) w.",
"~ ~ ^ I H N } {.}.v.b.!.!.!.!.!.!.!.!.m.n.n.OX{.} c H U ^ ` P ~ ",
"~ P ^ ( H 5 n R.W.6.9.v.m.B.!.!.!.M.!.v.k.6.W.R.k > Z ) ` ~ ~ ~ ",
"[ e.w.( q 2 x S +.&.*.6.v.B.!.!.!.!.b.9.:.*.O.S x , q Y t.[ ] [ ",
"V.V.V.] > q 1.6 7 | &.*.6.x.c.c.c.c.k.*.&.| a 6 1.Z > Y Z.V.Z.Z.",
"C.C.A.w.2 q 1.A f D ..-.;.=.=.=.*.-.;.-.o.C V A 1.e 0 w.A.A.A.A.",
"C.A.A.Z.Y w 4 e 0.0.! T.3.g  ...| g ! s._ Y 1.A 4 q Y Z.A.C.A.C.",
"A.A.C.C.Z.U 1 , u.D.(.].~ e 2.j.s.l W `.(.D.i.4 1 L V.A.C.A.C.A.",
"y.y.y.y.r.q.H 2 L F.#X3X^.u. XoX|.r.Z.$X#XG.1.5 Z e.V.y.y.y.y.y.",
") ( ` ) ^ / I F V 2.|.*X%X#X-X-X=X&X%X&X|.2.C H I I ( ( ` ) ` ] ",
"~ ` ~ ~ P I I F 1 4 i.|.*X;X=X&X=X;X&X|.i.6 3 H ( ~ ~ ~ ~ ~ ~ ~ ",
") ` ) ` ( ) F ; i { e.L u.|.XX XXX.Xy.L e.{ i 3 H ( ' ` ` ` ] ` ",
"e.y.e.d.d.J ; t H.`.^.l V /.#X#X#X/.S l ^.>XK.y 3 P e.e.e.y.r.e.",
"V.Z.Z.Z.r.G ; h U.`._.{ R.1X6X3X$X].I.{ _.:XU.T - V w.Z.Z.Z.C.V.",
"C.C.A.r.U 0.h.T.J.J.P.Y.<X8X8X2X{.R.L.K.P.J.L.a.t.H x r.A.A.A.A.",
"C.A.A.w.V 1.#X).} m E K._.,X7X2XW.! H.H.E R ~ ).@XI 2 Y S.A.C.A.",
"y.y.p.w.x Z d.[ m a S E ! R.'./.W.O.R E S a c [ Z.B x ] C.V.p.p.",
"w.` ) ) Y c % O   = d D | O.3.3.o.+.| D d #   $ & z ~ [ a.' ] w.",
"~ ( ^ ( ) B k - o + T m d d a a a s f m T *   # ; v ( [ ' ` ^ ` ",
"( ` ' ' P B B z # r j h t O O O o X = T j = @ k B G P ' ' ( / ` ",
"y.t.V.[ P B B c - * u t * O O O   O = u u * & z N N P [ f.e.e.e.",
"V.C.Z.Z.I J B B M ; O O p c c c z c i $ # - c N N G I V.Z.p.p.Z.",
"A.A.A.Z.( J B B G M k k v Q B P J J b 3 3 z N G G G I y.A.C.p.D."
};
