/* XPM */
static char *_120bed5ca5248a8dfa2be71564c10adA1Ft3nohLDa6AvlJ[] = {
/* columns rows colors chars-per-pixel */
"32 32 244 2 ",
"   c #030900",
".  c #101B07",
"X  c #2B1A05",
"o  c #093012",
"O  c #382405",
"+  c #363608",
"@  c #343E12",
"#  c #2B3429",
"$  c #522712",
"%  c #513514",
"&  c #6F2D17",
"*  c #783625",
"=  c #034406",
"-  c #0A5616",
";  c #155616",
":  c #314911",
">  c #2D5226",
",  c #077324",
"<  c #167230",
"1  c #2F6A30",
"2  c #414B16",
"3  c #6F4C15",
"4  c #594C31",
"5  c #744F36",
"6  c #4A6B32",
"7  c #6D603D",
"8  c #706F34",
"9  c #3F4A44",
"0  c #156C49",
"q  c #3F6B45",
"w  c #247649",
"e  c #4B4B47",
"r  c #514F48",
"t  c #58534F",
"y  c #735853",
"u  c #777453",
"i  c #88331B",
"p  c #832E23",
"a  c #8C5034",
"s  c #9D5837",
"d  c #AE5A34",
"f  c #916C38",
"g  c #AD713D",
"h  c #E85B38",
"j  c #855946",
"k  c #855C5E",
"l  c #AE5249",
"z  c #B6564D",
"x  c #976D4A",
"c  c #8E6F50",
"v  c #BA6D45",
"b  c #A77549",
"n  c #B1764C",
"m  c #AB7C59",
"M  c #917369",
"N  c #AD6866",
"B  c #C65447",
"V  c #CB564D",
"C  c #D95547",
"Z  c #E65E44",
"A  c #D76946",
"S  c #CE714B",
"D  c #D97853",
"F  c #ED6648",
"G  c #F26A48",
"H  c #E5714A",
"J  c #EC7955",
"K  c #FC7B55",
"L  c #F87658",
"P  c #FE7D5A",
"I  c #D77B62",
"U  c #02851E",
"Y  c #028B24",
"T  c #02862B",
"R  c #19892A",
"E  c #029424",
"W  c #029A25",
"Q  c #069528",
"!  c #019C2D",
"~  c #15972A",
"^  c #038738",
"/  c #1B8A37",
"(  c #029B33",
")  c #039839",
"_  c #189A38",
"`  c #24962D",
"'  c #2B8D32",
"]  c #05A52C",
"[  c #13A52C",
"{  c #1CA22A",
"}  c #1AAA2B",
"|  c #1BB12C",
" . c #01A332",
".. c #01A23A",
"X. c #04A938",
"o. c #1DB132",
"O. c #22AA2D",
"+. c #26A92C",
"@. c #2FB42F",
"#. c #26A736",
"$. c #34A639",
"%. c #2CB437",
"&. c #36B537",
"*. c #4D8D3A",
"=. c #60943D",
"-. c #45BA3F",
";. c #47C33E",
":. c #039647",
">. c #019B43",
",. c #009E4D",
"<. c #14974B",
"1. c #338A45",
"2. c #2D9349",
"3. c #00A543",
"4. c #0AA841",
"5. c #01AC4B",
"6. c #02B94B",
"7. c #14B749",
"8. c #00A554",
"9. c #01AE54",
"0. c #04AA5C",
"q. c #03B756",
"w. c #01B35C",
"e. c #17B351",
"r. c #23A64C",
"t. c #35A745",
"y. c #38B645",
"u. c #34AE57",
"i. c #01AA61",
"p. c #01BE64",
"a. c #00B768",
"s. c #17BA6A",
"d. c #18A872",
"f. c #01BC73",
"g. c #28AD69",
"h. c #35B06E",
"j. c #409647",
"k. c #4D9051",
"l. c #668A4B",
"z. c #728E52",
"x. c #48BC4B",
"c. c #50B24E",
"v. c #73A555",
"b. c #489960",
"n. c #4BAE6A",
"m. c #73AD68",
"M. c #01C15D",
"N. c #31C150",
"B. c #39C959",
"V. c #00C463",
"C. c #06C568",
"Z. c #16C56A",
"A. c #00C371",
"S. c #03C97A",
"D. c #18C175",
"F. c #04D479",
"G. c #32C96D",
"H. c #31CE77",
"J. c #45C343",
"K. c #49C548",
"L. c #51C84E",
"P. c #55C951",
"I. c #69C55A",
"U. c #49CD70",
"Y. c #74D36F",
"T. c #888234",
"R. c #998956",
"E. c #909157",
"W. c #AC8C55",
"Q. c #8A9D65",
"!. c #B48D71",
"~. c #87AB70",
"^. c #C28358",
"/. c #EA835D",
"(. c #FF8156",
"). c #FE835B",
"_. c #C48777",
"`. c #C99A7C",
"'. c #EF876C",
"]. c #FE8462",
"[. c #FF8A64",
"{. c #F8886A",
"}. c #F7957B",
"|. c #D3B46F",
" X c #94C876",
".X c #6DBF83",
"XX c #00C785",
"oX c #00CC82",
"OX c #03D585",
"+X c #00DB8B",
"@X c #16D687",
"#X c #08DE92",
"$X c #15DD90",
"%X c #3BC885",
"&X c #26D988",
"*X c #35D287",
"=X c #27D792",
"-X c #3ADD95",
";X c #0EE188",
":X c #06E596",
">X c #01E799",
",X c #18E799",
"<X c #33E28B",
"1X c #26E59A",
"2X c #24EB9D",
"3X c #2CEA9C",
"4X c #38E69A",
"5X c #1FEBA0",
"6X c #36E9A0",
"7X c #4ED08B",
"8X c #72C582",
"9X c #49E69E",
"0X c #998D8D",
"qX c #AE938C",
"wX c #AD8D92",
"eX c #A79C9E",
"rX c #93AD92",
"tX c #B4A892",
"yX c #999DA1",
"uX c #A79AA2",
"iX c #9AA3A8",
"pX c #A8A8AF",
"aX c #B4ADAF",
"sX c #B9B4B9",
"dX c #CC958F",
"fX c #E79D94",
"gX c #D1A78F",
"hX c #D7B695",
"jX c #E8A699",
"kX c #E9BA96",
"lX c #F0B094",
"zX c #CFACAA",
"xX c #C4B3B7",
"cX c #96D09D",
"vX c #ADCA89",
"bX c #D3C99C",
"nX c #F0C29F",
"mX c #D2C7B2",
"MX c #EFCBB0",
"NX c #F6DDBB",
"BX c #EFE2BA",
"VX c #BBC2C9",
"CX c #CBCDD7",
"ZX c #E8DCC7",
/* pixels */
"6X3X3X2X,X,X,X:X+XOXOXoXD.g.j.k.l.l.l.b.b.h.*X=X,X5X2X2X,X>X>X>X",
"3X3X,X,X,X2X3X1X,X1X-X7X8X~.R.g g v v n b R.~..X7X7X4X&XF.S.F.F.",
"@X;XF.F.F.&X<XH.h.n.m.Q.W.^.D J L L L L J S s 4 > w h.g.9.3.6.B.",
"V.V.q.3.5.u.c.z.8 f v D J G G L ].[.].).[.(.A d s 3 : < / )  .%.",
"6.q.5.3.t.=.T.g S H L [.[.L F F K ].).(.).).).[.{.d $ : 1.r.X.X.",
"6.V.p.u.l.R.S J ).).).].].L F G P ].).).).).(.).).A i % 1 <.5.X.",
"7.G.n.z.W.D ).].).).(.).).K F G P ].).).).).P P ].L B & + w 0.3.",
"c.m.E.n J ).).).(.(.(.).P G h h L ).).).).).).).P L C i O w d.a.",
"j.l.m /.).).).).).(.).[.{.{./.'.}.{.].].].).P L G F B p O w s.f.",
"< 2 n {.].P (.).).).[.}.lXMXMXMXMXlX}.{.L F Z Z C C B p O w g.s.",
", o a I {.].).].[.{.}.jXgXeXyXyXeXzXjXdXS C C C C C B * O 1 h.G.",
"R ; + c dXjXfXfXjXjXzXtXeXiXiXiXyXyXeXdX_.V V C C V l & X 1 n.U.",
"{ U - > u 0XwXwXzXxXxXyXpXCXCXCXVXpXiXxXdXN l z l s * % : < u.B.",
"] 4.<., = > y k M 0XuXaXsXsXaXaXsXpXuXuX0Xy y y 5 % . ; 1.r.4.X.",
"e.H.D.i.<.1 y j 5 $ y xXCXqXk M tXqXM y t r r t r #   < n.U.9...",
"<X4X4X=X%Xb.z.!.!.5 u mXZX!.c m gXhXqXc 4 e e e 9 # o w 7X9X&XS.",
"2X2X2X3X-X7XrXbXMXbXbXNXNXnXgX`.kXkXgXm 5 4 # . o 0 h.%X-X6X5X>X",
":X+X+X+X@X7XcXvXbXBXBXNXMXnXkXkXkX`.m j % X   o 0 d.=X1X:X:X+X+X",
"OXw.q.M.C.U.Y.Y. XvXtXtX`._.!.m x x m W.f 3 8 u q <.s.&X&XF.w.q.",
"Z.( E X.N.P.P.I.I.v.l.7 a s b f 3 3 b ^.|.|.|.R.: ; 2.U.U.e.! ! ",
"S.) E  .o.@.&.-.c.k.6 4 c `.hXhXR.3 % f |.|.W.8 . = 1.U.G.6.( ! ",
"OXw.5.5.X.] [ O.` R 1 6 Q.mXZXmXu + @ 8 Q.v.=.1 = - <.s.C.p.w.5.",
"$XS.f.w... .] } { ` R , k.rXcXrXq ; 1 *.*.$.j.2./ ^ :.w.A.S.S.a.",
"$XS.a.9...! [ %.J.K.&.Y , 1.b.b.' R R R ` ~ Q _ r.r.>.,.0.f.XXoX",
"#XS.a.9...[ &.J.L.L.&.Q U Y ~ ~ Q Y Y Q ` t.y.$.#._ _ >.,.a.oXOX",
"#XoXS.V.7.%.N.J.;.&.} W W [ O.} ] E Y Y #.x.L.x.y.#.X.3.q.A.oXoX",
"$XA.p.Z.B.J.&.+.+.O.[ W W } | | } O.{ Q ~ $.&.-.J.&.] X.q.p.A.A.",
"@X0.) 7.J.-.@.+.{ ~ E E ~ O.| ] | ;.x.$.R R $.$.&.@.[  . .3.9.a.",
"@X8.!  .O.@.+.+.~ Y Y T _ #.o.| @.;.x.t.R T ~ ~ { +.} W W ( 3.9.",
"@X9.( ! W W W Q Y T T ^ _ ( [ &.;.&.#._ ^ T T Q Q Q W W W  .5.9.",
"@Xw.3.( E E E Y T T ^ :.:.) ( y.P.y.( ) :.,.,.>.( E W X.Z.H.&XS.",
"$XS.C.Z.Z.s.q.9.8.8.0.i.8.:.) <.t.r.>.,.i.a.a.a.p.p.Z.H.-X9X6X,X"
};
