/* XPM */
static char *_cfb907865b1447fc4420aad61453b52MPJomWHTSUnp9sDw[] = {
/* columns rows colors chars-per-pixel */
"32 32 206 2 ",
"   c #141218",
".  c #281C1D",
"X  c #351B1D",
"o  c #381E1F",
"O  c #1E1D23",
"+  c #221E24",
"@  c #2D1F22",
"#  c #1F2635",
"$  c #1C293E",
"%  c #282323",
"&  c #22232C",
"*  c #2D252C",
"=  c #332B2B",
"-  c #3D282A",
";  c #38302E",
":  c #242936",
">  c #322F32",
",  c #3A3437",
"<  c #3A353C",
"1  c #4A272B",
"2  c #4A2C32",
"3  c #463939",
"4  c #57373C",
"5  c #662C35",
"6  c #633B39",
"7  c #7A323D",
"8  c #4A413D",
"9  c #56493E",
"0  c #2F394B",
"q  c #383946",
"w  c #393D51",
"e  c #473E47",
"r  c #653C44",
"t  c #3F404F",
"y  c #3D455A",
"u  c #3A4A63",
"i  c #4B4445",
"p  c #49454B",
"a  c #4A454F",
"s  c #554544",
"d  c #5B4C44",
"f  c #55474A",
"g  c #534B4C",
"h  c #5C4C4B",
"j  c #5F5147",
"k  c #54504F",
"l  c #5A524E",
"z  c #454452",
"x  c #474859",
"c  c #554E51",
"v  c #565152",
"b  c #5B5453",
"n  c #5E5759",
"m  c #684147",
"M  c #774549",
"N  c #62534C",
"B  c #6A564E",
"V  c #6B4A55",
"C  c #73485A",
"Z  c #6C5354",
"A  c #645B55",
"S  c #6B5F56",
"D  c #655C5C",
"F  c #6B5E5B",
"G  c #755C55",
"H  c #7D5954",
"J  c #6F6157",
"K  c #6C615A",
"L  c #77665B",
"P  c #73655D",
"I  c #7D6B5F",
"U  c #474A64",
"Y  c #564F63",
"T  c #45526E",
"R  c #5B5A68",
"E  c #685A66",
"W  c #725B75",
"Q  c #5F667D",
"!  c #6C6364",
"~  c #65626B",
"^  c #726764",
"/  c #736767",
"(  c #756A66",
")  c #7A6C65",
"_  c #756B6A",
"`  c #7A6D69",
"'  c #7E7066",
"]  c #7E716B",
"[  c #686976",
"{  c #6D6D76",
"}  c #7D6A7A",
"|  c #893F49",
" . c #8E454E",
".. c #934F55",
"X. c #885959",
"o. c #925256",
"O. c #9B535C",
"+. c #AC414F",
"@. c #AE4452",
"#. c #A54F5A",
"$. c #B14451",
"%. c #B34D5A",
"&. c #A4575F",
"*. c #B9515F",
"=. c #90645E",
"-. c #825B60",
";. c #A85B65",
":. c #BB5563",
">. c #B45864",
",. c #BE5967",
"<. c #BD5C69",
"1. c #946963",
"2. c #827265",
"3. c #8A7465",
"4. c #83746A",
"5. c #8A766B",
"6. c #8A796B",
"7. c #8C796B",
"8. c #957367",
"9. c #927E6D",
"0. c #9C7D6B",
"q. c #83737A",
"w. c #917E71",
"e. c #9A7E7A",
"r. c #B26A74",
"t. c #C05B69",
"y. c #C56473",
"u. c #C96574",
"i. c #C96976",
"p. c #C76C7C",
"a. c #CD6D7B",
"s. c #CF717F",
"d. c #D1717F",
"f. c #95806F",
"g. c #99836F",
"h. c #938071",
"j. c #968270",
"k. c #998371",
"l. c #9A8471",
"z. c #A38572",
"x. c #AB8A79",
"c. c #B38771",
"v. c #B79078",
"b. c #42568C",
"n. c #586490",
"m. c #7C7A86",
"M. c #78778C",
"N. c #7F6090",
"B. c #7F7998",
"V. c #6F7FAB",
"C. c #917E8E",
"Z. c #877993",
"A. c #BD7A8B",
"S. c #CF6F80",
"D. c #CF7280",
"F. c #C97584",
"G. c #CB7B8C",
"H. c #D07180",
"J. c #D07281",
"K. c #D27483",
"L. c #D17D8A",
"P. c #7287A8",
"I. c #6D87CA",
"U. c #87828B",
"Y. c #898592",
"T. c #95949A",
"R. c #A9928D",
"E. c #B99986",
"W. c #8C88A6",
"Q. c #848EAC",
"!. c #8792AF",
"~. c #9D90A7",
"^. c #9C9AA5",
"/. c #9D9CAB",
"(. c #8E98B9",
"). c #9197BB",
"_. c #A58EA6",
"`. c #B68FA8",
"'. c #A294AC",
"]. c #AA9DB3",
"[. c #A19BB9",
"{. c #9FA0AF",
"}. c #92A0BD",
"|. c #B9A5A7",
" X c #B6A9BD",
".X c #C79F85",
"XX c #C98C90",
"oX c #CCA288",
"OX c #D3AD94",
"+X c #D7B39E",
"@X c #E0B296",
"#X c #CC94A5",
"$X c #CD9DAF",
"%X c #E19DAC",
"&X c #D0B6A7",
"*X c #DDA6B4",
"=X c #EEC7AE",
"-X c #E7C9B6",
";X c #9FA8C5",
":X c #A7A8C5",
">X c #B2B1C8",
",X c #BDB9D6",
"<X c #D0CACE",
"1X c #CBCAD7",
"2X c #F2D4C1",
"3X c #DADAE9",
/* pixels */
"L ^ L I 7.f.2.F A a a a z y e s Z Z Z N p p a c b S 2.g.l.k.g.g.",
"6.7.6.7.f.f.' F A b g h g d m  ....... .M s f h K K 2.g.l.k.k.g.",
"g.g.g.g.k.j.2.F D F J G X...&.t.t.,.<.<.;.4 > i A 2.5.f.k.k.k.j.",
"9.9.f.9.9.7.2.^ G G H o.&.>.,.y.a.a.S.S.;.r 2 , d ) f.f.f.f.7.f.",
"2.2.2.2.2.' ' I -.O.&.>.y.u.t.,.a.S.H.D.a.r.;.r = b 4.2.2.' 2.2.",
"` ( ( ( ^ ^ L -.&.<.y.i.d.a.:.:.i.S.S.S.H.H.F.M @ 8 P ^ ^ ( ) ) ",
"` ` _ ( ( _ -.O.<.i.d.d.d.a.t.*.i.S.H.D.S.D.p.O.2 2 l ( ) _ _ ` ",
"6.6.6.6.5.1.O.<.u.d.J.J.H.a.t.:.a.S.H.J.H.D.H.<.7 X 9 4.6.6.6.6.",
"h.g.j.f.8.;.<.i.d.d.d.d.H.i.:.*.i.D.S.S.H.a.a.t.7 o 9 f.l.f.f.f.",
"k.k.k.3.X.>.i.s.d.d.d.d.d.a.y.<.S.H.D.S.D.a.t.%.7 o 9 f.z.g.l.l.",
"g.g.k.L 6 ..S.H.d.s.d.s.F.%X*X*X%XXXS.y.t.:.%.$.7 o 9 f.l.g.g.g.",
"9.9.9.N 1 | u.S.i.a.i.L.#X>X>X>X X#XS.:.@.@.$.%.7 o 9 7.f.7.f.f.",
"2.2.4.l 1 5 <.G.G.G.G.`.].!.P.P.W.].G.>.@.@.$.$.7 X 8 ' 3.2.2.2.",
"^ P ( ! s 2 C C.`.`.$X[.!.).:X;X).!.'.A.%.+.@.| 5 . 3 ( ` ^ ^ ^ ",
"! ! ! _ K g p E q.C._.;X).:X,X,X:X).[.G.O.| | 4 - ; b ( ( ! ! ! ",
"` ` ] ] 4._ k 3 r V E Z.[.]._.~.'.P.B.N.V r e * . N ] 2.] ` ` _ ",
"h.h.h.g.f.g.3.H M M 3 Y _.|.q.2.R.q.R x z z w & . A j.j.w.h.h.w.",
"l.l.l.l.l.l.l.8.=.1.B E |.&XX.2.x.x.! x t t q & % G l.l.k.k.k.j.",
"l.l.l.l.l.l.g.g.c.oXE.|.<X-XE.x.oXoX] y q : & = j 3.f.g.g.l.k.l.",
"l.l.l.l.l.l.k.z.oX@X=X2X-X=X+XoXoXz.A q &   % j 6.g.g.g.l.l.l.l.",
"h.h.h.h.6.f.f.f.l.E.OX&X+XE.v.c.0._ ~ x q 3 k L 9.9.9.9.f.9.f.9.",
"' _ _ P ( ( ( ( ' 2.j.l.5.^ E B l Z./.{.^.T.n 9 F ) ( ( ) ) ) ' ",
"( ^ ! ! ~ ! ! ! ^ ( Z.C.} Y { P.{ ~ ^.1X3X^.t % b ^ ! ! ! ^ ( ( ",
"_ _ ( ( ^ ^ ^ ( _ U.].[.M.Q W.:Xm.< { 1X1X~ . = D _ ( ! ( ( ( ( ",
"6.] ] 4.4.' 4.4.4.Z.>X/.U b.I.V.y & [ 1X1Xm.* = P 7.2.4.4.4.4.4.",
"j.j.f.h.f.f.f.f.( n U.U.y b.I.n.0 & [ <X3X{.p 3 ' k.9.9.w.w.9.9.",
"l.j.l.l.g.f.2.I S s p F ^ } N.W x 0 x Y.>XP.i N 7.l.k.g.k.k.k.k.",
"l.l.j.l.f.2.J J A b , d r.XX;.C x u & , A 8 8 S 3.9.k.k.g.g.g.k.",
"f.h.f.f.' J b b b b p l e..XC.V U u &   * e h A J 2.f.7.9.9.9.9.",
"K ! K ^ A b k b v v v i e E [ T u u : % < c v l l A P ] ` ( ` ( ",
"~ K ! ! n v v v g c g a > # $ $ $ : : q g c k v k v K / ! ! ! ! ",
"^ ^ _ K n v b v v v v v a > + O O & , g v c k k k b K ( _ ^ ( ! "
};
