/* XPM */
static char *cbfdc3f54a8443958934316ca3becb03fj5mfTugR9RjTO0t[] = {
/* columns rows colors chars-per-pixel */
"32 32 240 2 ",
"   c #0C3A14",
".  c #3C3015",
"X  c #3C3E29",
"o  c #49271D",
"O  c #602C1D",
"+  c #492A26",
"@  c #5B2E25",
"#  c #493529",
"$  c #553A2C",
"%  c #493B34",
"&  c #5A3D3A",
"*  c #6D352B",
"=  c #005323",
"-  c #3D522D",
";  c #166F2C",
":  c #097D29",
">  c #2E6C3A",
",  c #38733A",
"<  c #6F4314",
"1  c #534832",
"2  c #6E4E38",
"3  c #76483A",
"4  c #467E3A",
"5  c #7E7B39",
"6  c #513D44",
"7  c #386D45",
"8  c #327E55",
"9  c #55534A",
"0  c #664945",
"q  c #664C4C",
"w  c #794846",
"e  c #6E524E",
"r  c #735549",
"t  c #6C5452",
"y  c #765A56",
"u  c #456A49",
"i  c #526855",
"p  c #77794B",
"a  c #6F6B50",
"s  c #737557",
"d  c #5D7769",
"f  c #7E6863",
"g  c #657B6A",
"h  c #8D4B3E",
"j  c #A36F35",
"k  c #8C4F44",
"l  c #85564A",
"z  c #885F55",
"x  c #B94E44",
"c  c #A15A49",
"v  c #B7554B",
"b  c #A85855",
"n  c #8A6D4C",
"m  c #866857",
"M  c #996758",
"N  c #95765C",
"B  c #B6714B",
"V  c #AA695A",
"C  c #B17151",
"Z  c #866964",
"A  c #8B6C69",
"S  c #887567",
"D  c #95766B",
"F  c #897571",
"G  c #977873",
"H  c #A27B68",
"J  c #B67268",
"K  c #A07C74",
"L  c #C8594F",
"P  c #D7594C",
"I  c #E35C46",
"U  c #C66847",
"Y  c #D27351",
"T  c #EC6149",
"R  c #EB674B",
"E  c #F26A4F",
"W  c #F0734E",
"Q  c #EB6C58",
"!  c #F26D59",
"~  c #E87A58",
"^  c #F67356",
"/  c #FA7355",
"(  c #FB7559",
")  c #F5795A",
"_  c #FB7C5B",
"`  c #D97B65",
"'  c #D2756E",
"]  c #E27B64",
"[  c #FE7E63",
"{  c #018B22",
"}  c #048829",
"|  c #019324",
" . c #019B25",
".. c #08962A",
"X. c #009D2A",
"o. c #139D2A",
"O. c #018834",
"+. c #138A38",
"@. c #069435",
"#. c #15993A",
"$. c #2A932E",
"%. c #278434",
"&. c #368636",
"*. c #359632",
"=. c #05A429",
"-. c #14A629",
";. c #1BAC2B",
":. c #1EB22D",
">. c #03A536",
",. c #16A130",
"<. c #23AD2D",
"1. c #28B22E",
"2. c #33B42E",
"3. c #27A736",
"4. c #37A837",
"5. c #2AB432",
"6. c #3AB93A",
"7. c #518B3D",
"8. c #7A8437",
"9. c #47B63F",
"0. c #3EC23E",
"q. c #46C03C",
"w. c #078B4F",
"e. c #189A42",
"r. c #34954E",
"t. c #00AA43",
"y. c #11AF4D",
"u. c #04A857",
"i. c #04BA56",
"p. c #38AB43",
"a. c #3EB448",
"s. c #33A254",
"d. c #388F64",
"f. c #04A76B",
"g. c #01BC65",
"h. c #00BA76",
"j. c #2DAC71",
"k. c #3EBB78",
"l. c #4C9751",
"z. c #68875A",
"x. c #798455",
"c. c #6D9351",
"v. c #66965A",
"b. c #4FAD4E",
"n. c #48BC44",
"m. c #62AC4D",
"M. c #61B75F",
"N. c #4C916A",
"B. c #689A68",
"V. c #7D8F72",
"C. c #53AB6F",
"Z. c #6DA873",
"A. c #00C36B",
"S. c #00C878",
"D. c #01D47F",
"F. c #34C96E",
"G. c #48C242",
"H. c #57C54C",
"J. c #52C551",
"K. c #69C855",
"L. c #56CA75",
"P. c #8F8956",
"I. c #A8865A",
"U. c #868262",
"Y. c #9B8C66",
"T. c #878679",
"R. c #988676",
"E. c #879B75",
"W. c #B08D6D",
"Q. c #A98876",
"!. c #92AE73",
"~. c #FF825E",
"^. c #D48473",
"/. c #D98775",
"(. c #FF8462",
"). c #FD8669",
"_. c #E88776",
"`. c #F18B74",
"'. c #FA9479",
"]. c #8B7F85",
"[. c #2BB984",
"{. c #5EBC8D",
"}. c #6BB289",
"|. c #08C585",
" X c #0FDA93",
".X c #2ED590",
"XX c #05E49A",
"oX c #19E39B",
"OX c #34E89F",
"+X c #2AE9A1",
"@X c #36E9A4",
"#X c #56CC96",
"$X c #6AD38D",
"%X c #50E491",
"&X c #4FDCA4",
"*X c #4DE7AA",
"=X c #948783",
"-X c #8A9387",
";X c #A98987",
":X c #A79A87",
">X c #B79585",
",X c #B39292",
"<X c #B59793",
"1X c #97A985",
"2X c #9DB28F",
"3X c #9BBC93",
"4X c #AAAB8C",
"5X c #A3A596",
"6X c #97B5A4",
"7X c #A3B2A4",
"8X c #B9B5A7",
"9X c #C58A88",
"0X c #C69C86",
"qX c #D09482",
"wX c #F19888",
"eX c #C9A994",
"rX c #D9AD95",
"tX c #D6B49E",
"yX c #E9A288",
"uX c #F2A994",
"iX c #C8BBAB",
"pX c #D6B5A4",
"aX c #C8B3B1",
"sX c #E2BEA8",
"dX c #F7B9A9",
"fX c #EAB5B1",
"gX c #8CC994",
"hX c #B3C2A6",
"jX c #D8C9B6",
"kX c #E9C2AB",
"lX c #EFC7B0",
"zX c #F7CBB5",
"xX c #FED5BB",
"cX c #FBD8BF",
"vX c #CCBBC3",
"bX c #DEC9C7",
"nX c #FDD8C5",
"mX c #F1D3CD",
"MX c #FFE4CC",
"NX c #F5E2D5",
/* pixels */
"A D R.R.E.}.#X&XOX.Xk.C.B.v.z.p p p x.x.v.C.#X.XoX+X@XOXOXoXXXXX",
"Z G ;X:X2XgXgXgXgX!.Y.C B B U U U U U U B W.2XgX$X$X%X%X.XD.S.S.",
"Z G R.R.1X1X!.I.C Y ~ ) ) ) ) _ ) _ ) ) ) ~ Y I.P.c.M.L.F.i.t.i.",
"y Z A F S N C Y ~ ) (.(.(.(.(.~.~.~.~.(.(._ W W U j 8.m.a.y.>.>.",
"e y y r l C ` ).).(.(.(.(.(.(.(.(.~.~.(.(.(.(.(._ Y j 5 l.s.u.>.",
"q 0 & * c ` ).(._ ^ ^ ^ / / ^ ^ / / ^ / ^ / _ [ (.~.~ B n B.j.u.",
"q # @ c /.'.'.) R T T T T T T T T T T T T T E ^ ).'.'.] C a N.j.",
"t + @ J dXzXuX] R ( ( ( / / / / / ( ( / / / E R `.dXdXyXh $ d.[.",
"q + & ,XmXNXdX_.^ (.(.(.~.(.~.~.~.~.~.~.~.~._ ^ wXnXNXaXy   w.|.",
"q & q =XvXmXfXwX[ ~.~.~.~.~.~.~.~.~.~.~.~.~.(.(.uXnXbX5Xd 8 f.h.",
"e t q 6 ].aXfX_.Q ( ~.~.~.~.~.~.~.~.~.~.~._ / ) wXfX,Xi u N.[.h.",
"e e 0 . t ;X9X' P T ( [ ).(.(.(.(.(.~.(._ E I P ' 9XA % X u d.k.",
"t $ 1 S Z 2 w b L P P ! [ (.(.(.(.(.[ _ ^ I P L c * z A r X > C.",
"f + 1 <X>X2 O h b v L P Q Q Q ! ! Q Q Q P L v c * O K 0XN . ; s.",
"A y q A D Z M z l k V J b v x x x x v v J b k z m m D N a u r.u.",
"Z G A 0 o r Q.>XQ.G <X;Xw k V V V c 3 l ;X;XK >X>Xm 1 - N.{.&X.X",
"Z G G f 1 # S <XtXsXmXeX2 H rXtXrX0Xl r <XjXpXrXW.1 , C.#X*X*X@X",
"y f S T.-X-XV.R.0XkXnXlXtXkXxXxXxXzXtXtXlXzXrXW.U.B.#X&X*X@X@X+X",
"e y Z =X7X6Xg 1 2 W.sXcXMXMXxXzXxXnXMXMXnXrXM $ i {.&XoXXXoXoX X",
"e y A R.T.g 9 9 r n I.0XkXzXlXdXlXzXlXpX>XH n 2 u d.j..X X|.S.A.",
"e e y y % 1 =XiXtXI.< < J yXuXyXyXyXqXM * n eXjX5X1 > C.$XF.u.t.",
"e y e @ 1 R.aXNXjXW.2 3 C _._.] ` ^.9XG e S iXNXbX:XS x.B.C.y.t.",
"t y Z G :X8X8X5XE.z.a n W./././.9X,X;XF i s E.3XhXhX8X:Xg 8 e.u.",
"y 0 S iXjX1Xz.4 &.&.&.7.P.Y.Y.R.=XT.g 7 > &.l.l.l.Z.3X1Xu = w.f.",
"y 0 s 7X3Xv.%.*.4.4.4.$.&., , 7 7 > > %.+.+.#.#.#.e.s.l.; = w.h.",
"t f T.V.v.r.$.4.9.H.J.4.} : : : : : } } O.@.@.#.#.e.e.+.O.w.f.S.",
"y Z R.E.v.7.4.9.H.H.H.4.| { | o.o...{ { } 3.b.b.p.3.3.#.t.u.h.|.",
"A D :X4X!.m.9.n.G.q.2.-. . .=.-.-.=. .{ { 3.n.J.n.6.3.=.t.g.S.S.",
"G Q.:X!.!.K.n.5.<.1.;.=. .=.;.;.:.;.;.o.| ..3.5.6.0.5.=.>.i.A.g.",
"K R.U.c.m.H.q.<.;.-. .| | ,.<.<.;.1.n.n.3.| ..,.<.5.:.=.=.>.t.i.",
"A S a 4 *.1.1.;.=.| { { | o.3.<.<.2.G.J.p.O.} ..o.-.-.=. . .=.>.",
"f m p 7.*.$.o.X.X.| } O.@.@.,.<.6.G.a.3.#.O.O.O...X.X.X.X.X.>.>."
};
