/* XPM */
static char *d2f1f53c2a844483e39ca99d8c054b2f49MNOzbXKPsQAXDA[] = {
/* columns rows colors chars-per-pixel */
"32 32 244 2 ",
"   c #030E00",
".  c #001F02",
"X  c #022700",
"o  c #182E07",
"O  c #003D06",
"+  c #2D3713",
"@  c #0E3D29",
"#  c #343830",
"$  c #523103",
"%  c #4B3727",
"&  c #6F3C24",
"*  c #005707",
"=  c #054D1B",
"-  c #165D1C",
";  c #005523",
":  c #294727",
">  c #2B4F34",
",  c #077627",
"<  c #17702C",
"1  c #2A6D2F",
"2  c #4A4316",
"3  c #725215",
"4  c #524638",
"5  c #4D5131",
"6  c #6B4828",
"7  c #70552D",
"8  c #4D6328",
"9  c #35594B",
"0  c #177B46",
"q  c #3E7958",
"w  c #4C5045",
"e  c #655247",
"r  c #785D44",
"t  c #6E5752",
"y  c #725659",
"u  c #576F49",
"i  c #6D7B4C",
"p  c #7A7D49",
"a  c #75676D",
"s  c #864B33",
"d  c #976B38",
"f  c #9A743A",
"g  c #AE603A",
"h  c #A5763D",
"j  c #E55B38",
"k  c #8F5851",
"l  c #A95450",
"z  c #89734C",
"x  c #987649",
"c  c #8B6754",
"v  c #9A795C",
"b  c #B86242",
"n  c #BA754A",
"m  c #B66B59",
"M  c #A87856",
"N  c #887669",
"B  c #937B7B",
"V  c #AA7467",
"C  c #C7574A",
"Z  c #D85548",
"A  c #E75B4A",
"S  c #D06B51",
"D  c #DA7553",
"F  c #F26747",
"G  c #F9734C",
"H  c #E76E50",
"J  c #F46A51",
"K  c #E77856",
"L  c #F87756",
"P  c #FD7C55",
"I  c #E87D64",
"U  c #FE7C63",
"Y  c #008812",
"T  c #00921F",
"R  c #018B24",
"E  c #028629",
"W  c #008B29",
"Q  c #019323",
"!  c #029C26",
"~  c #06972C",
"^  c #029B2B",
"/  c #15902E",
"(  c #028633",
")  c #059237",
"_  c #019D31",
"`  c #009D3C",
"'  c #1B9839",
"]  c #2B892C",
"[  c #388835",
"{  c #269739",
"}  c #05A42A",
"|  c #0BA529",
" . c #17A52D",
".. c #14AA2B",
"X. c #1DAC2B",
"o. c #03A936",
"O. c #01A33A",
"+. c #13A934",
"@. c #01B73E",
"#. c #27A02A",
"$. c #22AF2D",
"%. c #28B22D",
"&. c #25A539",
"*. c #38AE3E",
"=. c #2BB534",
"-. c #36B636",
";. c #4C8A37",
":. c #6D8539",
">. c #4DA537",
",. c #45BF3D",
"<. c #48C23D",
"1. c #048B47",
"2. c #029945",
"3. c #029C4C",
"4. c #17924B",
"5. c #1A9A53",
"6. c #338F4B",
"7. c #379958",
"8. c #03A547",
"9. c #01AD4A",
"0. c #1AA346",
"q. c #02B549",
"w. c #01A753",
"e. c #01A55C",
"r. c #01B45C",
"t. c #02B958",
"y. c #17B257",
"u. c #2DAC4B",
"i. c #3AB543",
"p. c #149F63",
"a. c #00AB64",
"s. c #13AB6B",
"d. c #02B766",
"f. c #00BB6C",
"g. c #1AB766",
"h. c #04BA75",
"j. c #28B767",
"k. c #4F9751",
"l. c #559957",
"z. c #748D4E",
"x. c #689859",
"c. c #47BB45",
"v. c #4FB248",
"b. c #6EAC4A",
"n. c #789064",
"m. c #58AD64",
"M. c #56B676",
"N. c #71B377",
"B. c #09C25E",
"V. c #32C451",
"C. c #00C768",
"Z. c #01C36D",
"A. c #1AC567",
"S. c #02C473",
"D. c #01CB7A",
"F. c #04C979",
"G. c #18CB78",
"H. c #00D27A",
"J. c #27C969",
"K. c #23CE79",
"L. c #48C348",
"P. c #54C749",
"I. c #52C96F",
"U. c #9F833E",
"Y. c #828B4C",
"T. c #888254",
"R. c #978859",
"E. c #AA8C54",
"W. c #B58D57",
"Q. c #8E906E",
"!. c #BB8D6B",
"~. c #A98878",
"^. c #8EB06D",
"/. c #BDBA77",
"(. c #C69058",
"). c #FF8256",
"_. c #FF845C",
"`. c #D38E6E",
"'. c #EA896E",
"]. c #FE8462",
"[. c #F38B6C",
"{. c #FC8A6A",
"}. c #E78C73",
"|. c #F99377",
" X c #D8AD78",
".X c #E6B475",
"XX c #F0C47D",
"oX c #49B084",
"OX c #00CD82",
"+X c #00D485",
"@X c #01D986",
"#X c #09D58A",
"$X c #01DD8B",
"%X c #16D588",
"&X c #28D787",
"*X c #39D786",
"=X c #32D28D",
"-X c #2ADA94",
";X c #0CE28F",
":X c #09E496",
">X c #16E596",
",X c #1DE395",
"<X c #27E89B",
"1X c #36E79B",
"2X c #2AE9A2",
"3X c #36E8A1",
"4X c #38F1A4",
"5X c #49D283",
"6X c #56D894",
"7X c #64D287",
"8X c #42E395",
"9X c #90888A",
"0X c #9A9995",
"qX c #AB9287",
"wX c #A79A97",
"eX c #9FAF92",
"rX c #9CA4AA",
"tX c #A8A5A9",
"yX c #B3AEAC",
"uX c #B8AFB2",
"iX c #D29C92",
"pX c #D79D92",
"aX c #ED9C85",
"sX c #C4A182",
"dX c #DAB78B",
"fX c #CAAA98",
"gX c #D8AC94",
"hX c #EBAF93",
"jX c #CAB2AC",
"kX c #F1BAA8",
"lX c #88CF8C",
"zX c #B1C495",
"xX c #BDC7AF",
"cX c #D9CD94",
"vX c #DAC3AC",
"bX c #C9C9B3",
"nX c #EECEAE",
"mX c #F4C6B0",
"MX c #FAD7B9",
"NX c #BBBEC3",
"BX c #C1BEC6",
"VX c #C9CBD0",
"CX c #FFDEC0",
"ZX c #D5E3C8",
/* pixels */
"%X1X1X%XD.Z.Z.f.f.a.p.7.6.[ [ >.b.v.0.2.w.d.h.S.S.S.F.&X=X%XS.Z.",
"2X3X1X1X,X:X:X#X%Xj.l.i z x d f U.z.7.5.s.h.D.+X$X:X<X1X3X<X>X:X",
"2X>X,X4X3X%Xd.1.< i M D I I K H H S x z T.n.N.6X8X3X2X<X>X$X$X$X",
";X$X$X#Xg.6.1 6 s b K {.].].].P J H H D D (.!.^.7X*X%X@XZ.t.t.A.",
"C.H.H.3.* + z `.[._._.).)._._.G F F P _.P L D n E.Y.l.u.' ^ o.u.",
"q.t.8.< O 6 S [.{._.).).).)._.G F F G ).).)._.L J S h :.[ 0.o.} ",
"@.q., O 2 b I ]._._.).).).).].P F F G ).).).).].].L D h p l.u.+.",
"q.q., X & S U ].].]._.).)._._.G j j G _._._.)._.)._._.K n R.x.k.",
"q.j.< X & C J L U U _.)._.].{.|.'.'.|.|.]._._._.).)._._.K n z.k.",
"r.j.< . & C A A A J J L {.|.hXkXkXmXmXkXaX[.].]._._.P ].L g 8 6.",
"Z.g.< . & m S Z Z Z Z Z }.hXfXwX0X0XwXyXfXiX}.}.[.[.[.[.S s 5 6.",
"q.9., X % k m C Z Z S `.iXwXwXtXrXrXrX0XwXjXjXgXpXpXpX!.s % u m.",
"o._ E ; o 4 k k l l V iXjXtXtXNXVXVXBXtXtXjXuXwX9XB N w : 1 l.I.",
"..} 2.4.; . # w e e y B 9X9XwXyXwXwXtXuXuX9Xa y t t 5 > < 4.j.V.",
"} o.y.4.=   @ 9 9 w w 4 e N qXqXc r qXbXtX% % c c r u k.7.y.q.o.",
"t.K.&Xf.1.; O @ # > 4 e N fXgXsXM E.gXMXvX~.~.fXsXR.x.M.5X&Xd.9.",
",X<X3X3X-Xs.0 = X o + 4 v sXgXdXdXdXmXMXCXMXMXnXcXzXlX7X6X3X>X+X",
"<X<X<X2X2X=XoXq : o 2 7 d M !. X X XdXdXnXnXvXzXzXlX7X8X1X3X<X:X",
"<X+XD.@X+Xh.4.> 5 z W.(.(.W.h d f f f x v R.n.n.N.M.K.@X;X>X@XH.",
"&Xr.` t.A.8.* o 7 x (..XXX(.3 $ 7 v M V V c r z p z.m.I.*XG.t.O.",
"&X9.Y ~ u.' * + 2 7 f  XXXW.3 $ e ~.fXvXjX~.m m n x Q.N.I.B.O.Q ",
"&Xr.` 8.8.W * O : 8 z./.cXW.3 + # Q.xXZXbXQ.T.E.R.Y.x.m.A.B.9.O.",
",XD.f.d.w.) , , < [ ;.b.^.z.8 + : u Q.eXN.x.k.k.;.[ 6.5.f.D.Z.d.",
">XH.Z.d.w.2.' u.v.v.>.] ] 1 < - 1 < ] { { { { { ' ' 4.3.a.h.D.D.",
">XH.f.r.8.O.&.c.P.P.c.#.R R E E / R W E ) { &.&.' 0.0.3.3.e.h.OX",
":X@XD.Z.q.o.=.L.P.<.-.| Q ! } ..} ! R E ' i.L.c.i.&.+.O.8.r.D.+X",
":X+XS.C.J.V.-.-.%.$...! ! ..X.X.X. . .R R &.-.-.L.i.+.o.q.Z.D.D.",
",XS.8.9.V.L.-.X.| | ! Q ~ X.$.X.X.-.c.*./ Q ^ ..=.=.$.| } 9.r.d.",
"-Xf.` ^ +.%.%...! Q R W ~  .$.X.$.-.P.c.{ E W ^ } ..X.| ! ^ 8.w.",
"-Xf.2._ ^ ! ! ! Q R E ( / ~  .=.,.,.*.&.) ( E W ! ! ! ! ! _ 8.w.",
"-Xf.8.` ^ T T Q R E ( 1.1.) ^ &.L.L.&.) 1.3.3.2._ Q T ^ y.J.K.G.",
"1X%XG.G.A.g.g.r.9.w.e.a.e.3.` ` u.u.8.3.e.a.f.f.d.d.g.J.*X8X1X<X"
};
