/* XPM */
static char *d8cb0639273f4f53e61b271924cf1676B8mrZPmEYvw6PjaZ[] = {
/* columns rows colors chars-per-pixel */
"32 32 240 2 ",
"   c #1F0A00",
".  c #270200",
"X  c #370000",
"o  c #003200",
"O  c #2D2F0C",
"+  c #2B2917",
"@  c #3B3729",
"#  c #4F1901",
"$  c #661606",
"%  c #552D11",
"&  c #722008",
"*  c #64351A",
"=  c #493B2E",
"-  c #603E27",
";  c #054A04",
":  c #004F09",
">  c #2B4A0B",
",  c #1A700E",
"<  c #2F7B1F",
"1  c #0F582D",
"2  c #35562F",
"3  c #006A27",
"4  c #0F7232",
"5  c #21682F",
"6  c #267C28",
"7  c #39653A",
"8  c #715016",
"9  c #43423D",
"0  c #5A5136",
"q  c #714A34",
"w  c #695A37",
"e  c #466E26",
"r  c #587735",
"t  c #726C36",
"y  c #384542",
"u  c #007642",
"i  c #347C4B",
"p  c #4B4C47",
"a  c #57574C",
"s  c #585D56",
"d  c #764E45",
"f  c #7B4D44",
"g  c #665649",
"h  c #755249",
"j  c #4D6E45",
"k  c #666156",
"l  c #757E57",
"z  c #5B6765",
"x  c #7B7163",
"c  c #993B26",
"v  c #A03D30",
"b  c #8F4F32",
"n  c #AF4D38",
"m  c #916C32",
"M  c #9A783F",
"N  c #BA6C37",
"B  c #CC543E",
"V  c #DD523E",
"C  c #E4583E",
"Z  c #8A5945",
"A  c #8B5649",
"S  c #A94C40",
"D  c #A55646",
"F  c #B95647",
"G  c #9A6848",
"H  c #937652",
"J  c #A56B44",
"K  c #B36B47",
"L  c #A6764A",
"P  c #B37751",
"I  c #877F6A",
"U  c #B87A65",
"Y  c #D84E44",
"T  c #C2564B",
"R  c #C75749",
"E  c #DD5343",
"W  c #DB564A",
"Q  c #D4584A",
"!  c #E55C46",
"~  c #E55E51",
"^  c #D4754D",
"/  c #ED6446",
"(  c #E6624A",
")  c #EA624B",
"_  c #F1644A",
"`  c #F46C4C",
"'  c #EC734E",
"]  c #EA6850",
"[  c #F46C50",
"{  c #E87856",
"}  c #F47555",
"|  c #FB7656",
" . c #FE7D5B",
".. c #FE7E62",
"X. c #07891B",
"o. c #00911E",
"O. c #018B24",
"+. c #028728",
"@. c #158A25",
"#. c #198C2E",
"$. c #019424",
"%. c #019B25",
"&. c #089728",
"*. c #019C2A",
"=. c #038A36",
"-. c #049B33",
";. c #00943A",
":. c #159A35",
">. c #248E2B",
",. c #239736",
"<. c #299131",
"1. c #379438",
"2. c #03A32C",
"3. c #0BA329",
"4. c #0AAB2B",
"5. c #17A92A",
"6. c #15AC2B",
"7. c #1BB12E",
"8. c #03A839",
"9. c #1AA834",
"0. c #1BB235",
"q. c #2AAD2E",
"w. c #27B32F",
"e. c #28A835",
"r. c #37AA38",
"t. c #2AB533",
"y. c #36B838",
"u. c #518D38",
"i. c #6A8F3A",
"p. c #44BC3D",
"a. c #039646",
"s. c #019B42",
"d. c #1D944C",
"f. c #049A57",
"g. c #2E904C",
"h. c #259558",
"j. c #02A645",
"k. c #01AB4B",
"l. c #02B44B",
"z. c #18B942",
"x. c #02AA55",
"c. c #01B65A",
"v. c #16B054",
"b. c #2EA948",
"n. c #3CB845",
"m. c #34AF54",
"M. c #159C67",
"N. c #04A865",
"B. c #01B464",
"V. c #06BB65",
"C. c #01BA6B",
"Z. c #14B06B",
"A. c #02BC76",
"S. c #2DAD6E",
"D. c #4F9050",
"F. c #638C44",
"G. c #728F5C",
"H. c #45BD42",
"J. c #4BB757",
"K. c #74AB4F",
"L. c #559664",
"P. c #6E946C",
"I. c #4FAB6E",
"U. c #75B570",
"Y. c #1EC250",
"T. c #2FC450",
"R. c #00C769",
"E. c #01C374",
"W. c #00C776",
"Q. c #01CA7C",
"!. c #2BCE69",
"~. c #37CA66",
"^. c #2AC975",
"/. c #37D674",
"(. c #48C445",
"). c #55C94D",
"_. c #52C551",
"`. c #51CE6E",
"'. c #60C569",
"]. c #868234",
"[. c #89875B",
"{. c #998E5A",
"}. c #899655",
"|. c #B28958",
" X c #A99257",
".X c #9FAA51",
"XX c #8C8B6D",
"oX c #AF8E6E",
"OX c #AA9479",
"+X c #8DA874",
"@X c #BCA374",
"#X c #CE8259",
"$X c #C7935B",
"%X c #FF845E",
"&X c #FF885F",
"*X c #C39769",
"=X c #FF8562",
"-X c #FF8968",
";X c #D2AD72",
":X c #EABA77",
">X c #DFCC78",
",X c #E4C079",
"<X c #2DB882",
"1X c #00CC82",
"2X c #04D586",
"3X c #19DA8A",
"4X c #2ADC89",
"5X c #35D18B",
"6X c #35DB89",
"7X c #28DD92",
"8X c #0BE08A",
"9X c #0AE69B",
"0X c #13E493",
"qX c #3AE78E",
"wX c #28E69A",
"eX c #39E795",
"rX c #4FD290",
"tX c #69CA8C",
"yX c #6FD48E",
"uX c #4CE28A",
"iX c #47E593",
"pX c #58E192",
"aX c #52DFA0",
"sX c #49E8A3",
"dX c #8E9D82",
"fX c #9E9783",
"gX c #A29783",
"hX c #8BB289",
"jX c #ABAF94",
"kX c #BFB9A6",
"lX c #D49986",
"zX c #D1B288",
"xX c #EABD86",
"cX c #8DC68B",
"vX c #BECAAE",
"bX c #C3C587",
"nX c #E0C198",
"mX c #D6CCB3",
"MX c #DCD6CB",
"NX c #E3E1CD",
/* pixels */
"qXqXqXqXqXiXpXpXyXtX+X[.L L K K K K K K H +XcXyXpXuXuXiXiXeXeXqX",
"~.`./.!.m.'.U.}.{.|.#X{ { } } } } } } } { ^ |. X}.K.'.`.uX^.R.!.",
"y.T.Y.j.#.i.].^ ^ '  .=X-X=X=X=X=X%X&X%X%X| ' ^ N m i.J.~.c.8.8.",
"t.z.m.g.r M ^ =X-X=X| ` ` ` ` ` ` ` ` ` `  .-X=X' N 8 e h.V.l.8.",
"6.e.D.F.G ^ { | | } ` / / / _ / _ _ _ _ _ [ } } ] B c * 7 h.x.j.",
"w.<.e b F Q ( / / _ |  . . . . . . . . . .` _ / ! E Q v # 2 d.k.",
"9.6 > q T W ! ` |  .%X=X%X%X%X=X%X%X%X%X%X%X .| / ! ~ n $ @ h.V.",
"j.=.: 0 D Q ! / | .... . . . . . . . . . . . .` ! E Q b % 1 N.E.",
"c.B.f.1 - S Q E E ) ] ) ( ) ) ) ) ) ) ) ) ! C V E Y c * 7 M.A.C.",
"l.V.S.1   b R W Y Y E E E E E E E E E E V E V E ~ T & O i <XA.V.",
"0.-.#.7 w b T Q Q W E E E E E E E E E E E E W W R F b w j d.Z.~.",
"t.@.; [.zXU D S F T Q Q E E E E E E E E W Q R F n P lXoX0 ; g.`.",
"e.@.: l OXH q q d A D F F T T T T T F F F D A q q A oXoX0 5 g.b.",
"-.j.m.i ; O = g k g g h d f f f f f f f d g g k 0 + O 2 L.I.Z.s.",
"W.4XiXrXh.: 2 XXfXx a a p p p p p p p p a k I gXk O 7 I.aXsX7XW.",
"9XwXeXsXiXS.i j I XXg @ @ a z z z s 9 + @ H OXOXXXP.rXaXsXeXwX9X",
"8X8X0X8XwX5Xd.o w @XoX8 % = 9 y y = = % b *X*Xw D.tXiX7X7XwX0X9X",
"R.Q.8XQ.C.f.u j {.;X:X$Xb # . . . X * J $X:X;Xt 7 h.S.5X7X3XW.V.",
"Y.!./.v.3 ; P.vXmXzX*X$XL G G b Z G L P $X;XnXmXfXe 5 I.rX^.k.*.",
"y.n.m.6 > l kXMXMXjX[. XzXxX*XJ P ;XxX;X XoXmXNXmXgXw r L.I.d.$.",
"y.e.1.G.jXjXjXdXP.G.j G.bX;XL m J $X,X>X.X}.P.hXhXjXjXXXG.D.h.j.",
"t.@., +XvXhXD.6 <.1.<.u.u.r t [.H t ]..XK.u.1.g.g.I.hXP.7 1 M.A.",
"6.*.,.I.U.D.<.<.r.H.p.e.X.6 u.F.F.r < @.@.>.#.:.:.d.d.4 3 u A.1X",
"-.k.^.Z.x.-.9.q.(.).).y.@.+.@.>.>.>.@.O.O.,.e.e.:.:.s.a.a.f.A.1X",
"x.C.1X1XV.l.0.p.(.(.p.q.&.$.&.5.3.%.$.O.O.n._._.n.e.9.8.k.B.W.1X",
"c.E.Q.Q.R.!.T.y.t.w.7.3.%.2.5.7.6.4.3.$.O.e.y.y.(.(.w.2.l.R.Q.Q.",
"z.l.c.l.l.T.(.y.5.4.3.%.%.3.7.6.4.7.y.y.:.O.&.5.w.t.w.3.8.k.c.B.",
"7.2.2.%.*.w.y.q.3.%.$.O.O.3.0.4.4.w.(._.b.+.O.&.3.6.7.5.%.*.j.x.",
"7.4.%.o.$.%.%.3.*.$.+.+.=.-.5.7.t.y.y.r.,.=.+.O.%.*.3.%.%.-.j.x.",
"2.8.8.8.%.o.o.o.O.O.+.=.a.;.-.9.H._.n.-.;.a.a.;.$.o.o.%.8.k.x.x.",
"j.v./.^.c.k.k.k.j.s.a.f.f.a.;.;.b.J.b.s.a.x.B.c.x.k.k.v.^.5X^.C.",
"4X4XeXeX7X6X4X4X2XQ.Q.Q.E.C.x.s.;.j.x.c.B.A.1X1X2X3X4X6XiXiXeX7X"
};
