/* XPM */
static char *_0ca385ea94b4254ef53cbcfadc0360akdkDiQpuWrbZYX6v[] = {
/* columns rows colors chars-per-pixel */
"32 32 245 2 ",
"   c #31320E",
".  c #3D352D",
"X  c #663714",
"o  c #4E2F28",
"O  c #453C31",
"+  c #652E22",
"@  c #6F3B2D",
"#  c #094F21",
"$  c #01552C",
"%  c #394F30",
"&  c #12752A",
"*  c #086E34",
"=  c #177531",
"-  c #227939",
";  c #4B4B31",
":  c #5A4834",
">  c #6A4638",
",  c #79453B",
"<  c #6A573E",
"1  c #785430",
"2  c #52713D",
"3  c #79643D",
"4  c #4F3C42",
"5  c #017E45",
"6  c #356944",
"7  c #387643",
"8  c #514D46",
"9  c #6A4A41",
"0  c #75584B",
"q  c #725B56",
"w  c #49704D",
"e  c #5E7A45",
"r  c #437455",
"t  c #587457",
"y  c #6F6F51",
"u  c #65655A",
"i  c #517361",
"p  c #706E66",
"a  c #904739",
"s  c #927435",
"d  c #B76F3C",
"f  c #8F4C47",
"g  c #885747",
"h  c #945348",
"j  c #875C53",
"k  c #B85348",
"l  c #BB534A",
"z  c #B0584F",
"x  c #B85B56",
"c  c #8E714D",
"v  c #886656",
"b  c #9A7357",
"n  c #B47449",
"m  c #A76455",
"M  c #B3695B",
"N  c #A97255",
"B  c #8B6D6A",
"V  c #8C7268",
"C  c #9A7765",
"Z  c #977871",
"A  c #B76763",
"S  c #A57D6C",
"D  c #C7584C",
"F  c #D95849",
"G  c #CD5D57",
"H  c #E75B45",
"J  c #DB6C4E",
"K  c #D47046",
"L  c #C76A52",
"P  c #DA6754",
"I  c #C97754",
"U  c #D47653",
"Y  c #EE644A",
"T  c #E5694C",
"R  c #F0624B",
"E  c #F36B4F",
"W  c #ED744F",
"Q  c #EB6C57",
"!  c #F36B51",
"~  c #F16E59",
"^  c #EC7859",
"/  c #F77557",
"(  c #F97455",
")  c #FD7957",
"_  c #FD7B5B",
"`  c #D07B69",
"'  c #EB7C69",
"]  c #F77A63",
"[  c #FE7D62",
"{  c #00861F",
"}  c #028A23",
"|  c #058628",
" . c #018A2B",
".. c #118E2B",
"X. c #019223",
"o. c #019C25",
"O. c #019C2D",
"+. c #0A982A",
"@. c #17992C",
"#. c #058D34",
"$. c #008C3B",
"%. c #188733",
"&. c #059437",
"*. c #009B32",
"=. c #189B38",
"-. c #308C2F",
";. c #23992C",
":. c #2F8830",
">. c #269A3A",
",. c #339835",
"<. c #04A429",
"1. c #0CA52B",
"2. c #0AA829",
"3. c #16A72A",
"4. c #1CAC2B",
"5. c #01A437",
"6. c #19A831",
"7. c #25AB2D",
"8. c #25B12D",
"9. c #26A836",
"0. c #35AB39",
"q. c #2AB533",
"w. c #34B634",
"e. c #39BA37",
"r. c #458538",
"t. c #4E8A3D",
"y. c #6F8C3E",
"u. c #49A53E",
"i. c #44B73E",
"p. c #43BC3C",
"a. c #0A9549",
"s. c #199B42",
"d. c #2C974B",
"f. c #06A548",
"g. c #00B24B",
"h. c #33A746",
"j. c #30AC4B",
"k. c #2D8D68",
"l. c #00B266",
"z. c #4A8848",
"x. c #538952",
"c. c #5A9854",
"v. c #798440",
"b. c #48BB46",
"n. c #53B14D",
"m. c #72AF57",
"M. c #489A70",
"N. c #668A66",
"B. c #739369",
"V. c #798978",
"C. c #4EAD66",
"Z. c #71AA70",
"A. c #01C66D",
"S. c #1CCC75",
"D. c #49C146",
"F. c #56C649",
"G. c #48C258",
"H. c #59C754",
"J. c #69C956",
"K. c #53C37D",
"L. c #69C67C",
"P. c #978555",
"I. c #848866",
"U. c #8D8F6D",
"Y. c #95867A",
"T. c #939877",
"R. c #A98A6A",
"E. c #B58A6A",
"W. c #AA8B76",
"Q. c #B58B79",
"!. c #B69978",
"~. c #94A67B",
"^. c #92B478",
"/. c #A9A575",
"(. c #C5855F",
"). c #FF825E",
"_. c #D68169",
"`. c #D58377",
"'. c #E4876E",
"]. c #FF8362",
"[. c #FA8669",
"{. c #E88974",
"}. c #FA8B74",
"|. c #E6927B",
" X c #33B483",
".X c #7C9384",
"XX c #57B687",
"oX c #69BC92",
"OX c #04D58A",
"+X c #1AD595",
"@X c #3FDD83",
"#X c #1FE29D",
"$X c #3BE4A5",
"%X c #57D983",
"&X c #52CB90",
"*X c #5AD9A3",
"=X c #50E6AA",
"-X c #938B87",
";X c #8B9584",
":X c #AB8787",
">X c #B78D88",
",X c #A59887",
"<X c #B29890",
"1X c #B69B99",
"2X c #8EB48B",
"3X c #99B78B",
"4X c #ACB08F",
"5X c #B8A697",
"6X c #9FBCAB",
"7X c #AFADA9",
"8X c #BAB9A6",
"9X c #CA8E84",
"0X c #C69A85",
"qX c #FD9981",
"wX c #E99D94",
"eX c #CAA38A",
"rX c #C7A894",
"tX c #D4AB95",
"yX c #D6AC95",
"uX c #F3AA8F",
"iX c #EBAD94",
"pX c #F5A898",
"aX c #CDB6AE",
"sX c #D7B8B3",
"dX c #F9AEA0",
"fX c #E5BDA8",
"gX c #FDB9AB",
"hX c #EFBBB6",
"jX c #9AC496",
"kX c #B5C5A8",
"lX c #C7C5B2",
"zX c #DFC8B2",
"xX c #E6C2AB",
"cX c #F4C4A8",
"vX c #EBC8B8",
"bX c #FACDB9",
"nX c #FAD3B9",
"mX c #FCD4BB",
"MX c #DDCBC7",
"NX c #E9CBC8",
"BX c #FBCBC3",
"VX c #FCDAC6",
"CX c #FEE1CA",
"ZX c #F8E4D7",
"AX c #FEE2E2",
/* pixels */
",X3XjXjX3X^.~./.E.I I U J J T T T J J J U (.!./.^.Z.L.%X%X@XS.A.",
"Y.T.T.R.P.n L U ^ ].].].).).).).).).).)._ ^ T K n c v.c.n.G.j.g.",
"V V b N U ^ _ ).].].].].].).).).).).).].].).) ) / K d s y.c.j.f.",
"> f M ` [.[.].].].].].].].].].].)._ _ ).).).].].].).W d s v.c.j.",
"a z ` [.[.).( E E ! ! ! ! ! ! ! ! ! E E E E ( ) ].].].^ U n c N.",
"M |.uX}.[.^ Y Y Y R Y Y Y Y Y Y R R Y Y Y Y Y ! / }.qXqX{.L g y ",
">XhXBXgX|.Q ! ) _ ) ) ) ) ) ) ) ) ) _ ) ) ) ( E Q qXgXbXdXM @ % ",
"1XNXAXBXwX' / [ ].].).).].).).).).).).).).)._ ( ] pXVXZXMXY.; $ ",
"-XaXNXNXdX}.] ].).).).).).).).).).).).).).).].].}.dXBXMX7XV.i k.",
"4 B 7XsXwX' Q ( _ ).].].).).).).).).).).)._ ( / ' pXhX<Xu 8 r M.",
"o q Y.>X` G F Y / [ ].].].].].].].).].]._ ! H F P `.9XB 8 . % r ",
"V B 9 , f x G F F Q ] [ ].].].].].].[ _ / T F F D a @ j V v : % ",
"1X>X0 + @ f z z D D P Q Q Q ~ ~ ~ ~ Q Q P D D k a + + C 0XW.<   ",
"Z Z B v v g g g m A x z k k k k k k k x A m h g j v v C C v 2 7 ",
"> o 9 C >XQ.S C >X>XB , h m m m m h @ j :X:XZ S >XW.v : ; w M.XX",
"q O   0 W.rXyXfXvXsXV > R.yXyXtXeXS @ 0 <XsXsXyXtXC ; % x.XX*X=X",
"Y.;XV.V.U.!.tXvXVXnXtXrXxXmXmXnXbXfXeXrXzXbXfXeXW.I.N.XX*X=X=X$X",
"-X6X6X.Xu < v 0XxXnXCXCXVXmXnXmXVXCXCXCXVXfXQ.j : N.oX*X$X#X+X#X",
"Y.;X.Xi ; : 1 b E.eXxXmXnXcXcXcXbXmXbXxXyXQ.c > ; 6 M. X+XOXOXOX",
"p 8 O u -X5X<Xb 1 1 N 0XiXiXuXuXiXiX0Xb , g W.rX5XV.% 6 M.K.&XS.",
"o o q 1XMXZXzXR.1 X a ` {.|.'._.`.`.Q.B 9 v 5XVXZXlXY.y y B.Z.C.",
"q Z 5XaXlX8X4XI.y 3 N _.'.'.`.`.9X>X:XZ u y T.4XlXlX8X5X,XI.x.d.",
"8XlX8X;XN.x.z.r.2 e P.R.E.E.Q.>X,X-XV.r 6 7 x.c.Z.Z.2XkX8XV.6 * ",
"kXkXZ.z.:.-.,.,.,.-.r.t.e e t t t r 7 - = %.>.>.s.s.d.C.Z.w # $ ",
"~.Z.c.,.;.0.i.D.b.0.;.| & = = = & & %.%.#.#.&.&.&.&.s.s.s.* * 5 ",
"B.c.u.,.0.i.F.H.H.b.;.} | | ......| }  . .=.d.h.h.s.=.=.s.&.a.f.",
"~.Z.c.u.i.D.F.F.p.w.+.X.o.o.1.1.<.o.X.} } >.b.H.n.h.0.9.6.5.f.l.",
"3X^.m.n.i.w.w.w.8.1.o.o.<.3.4.4.3.<.o.X.} @.0.e.i.p.D.q.1.5.g.A.",
"I.m.J.F.e.4.4.4.3.o.o.o.3.7.4.8.8.8.w.9.@.X.+.6.7.w.e.q.2.<.5.g.",
"t.u.b.p.w.4.3.+.X.} X.+.6.7.4.4.4.e.F.G.h.#. ...3.7.8.4.2.<.o.O.",
"r.,.7.4.3.<.o.X.{ }  . .=.7.7.8.w.e.b.b.h.#.|  .X.+.1.2.<.o.o.o.",
"z.r.-.@.O.O.O. . .#.$.&.*.+.7.e.D.D.0.=.&.$.$.$.&.*.*.O.O.*.*.5."
};
