/* XPM */
static char *_f7658a82c834466c89c80bbe0426525tRTaOqv1HXGM5UIN[] = {
/* columns rows colors chars-per-pixel */
"32 32 218 2 ",
"   c #283400",
".  c #53290B",
"X  c #643C2E",
"o  c #164E1F",
"O  c #227E1B",
"+  c #2F5B24",
"@  c #14602C",
"#  c #176332",
"$  c #1E7F32",
"%  c #307533",
"&  c #524617",
"*  c #504E31",
"=  c #544638",
"-  c #4B6E37",
";  c #6F623F",
":  c #3F4C46",
">  c #3D6C44",
",  c #25714C",
"<  c #785A47",
"1  c #77554D",
"2  c #446743",
"3  c #496B52",
"4  c #58735C",
"5  c #7E614C",
"6  c #727D44",
"7  c #74705A",
"8  c #706460",
"9  c #833426",
"0  c #864A34",
"q  c #897830",
"w  c #B36E32",
"e  c #DA573C",
"r  c #864D43",
"t  c #9C5545",
"y  c #AD5A47",
"u  c #AF5850",
"i  c #90684F",
"p  c #946D57",
"a  c #917154",
"s  c #BA7545",
"d  c #906B61",
"f  c #9A7768",
"g  c #A57268",
"h  c #A57977",
"j  c #CB5A45",
"k  c #C95E4B",
"l  c #D35E47",
"z  c #C76943",
"x  c #C9744E",
"c  c #D57343",
"v  c #C56256",
"b  c #E76543",
"n  c #E86947",
"m  c #EE6E4A",
"M  c #F16F4A",
"N  c #E9764C",
"B  c #F1714C",
"V  c #F47A4F",
"C  c #E87153",
"Z  c #F57B55",
"A  c #F67D54",
"S  c #F67B59",
"D  c #C36F63",
"F  c #218A06",
"G  c #249501",
"H  c #269908",
"J  c #218814",
"K  c #228619",
"L  c #2B9B13",
"P  c #289B17",
"I  c #309C1F",
"U  c #29A101",
"Y  c #2CA908",
"T  c #35AD04",
"R  c #36AC0A",
"E  c #36B00C",
"W  c #2EA415",
"Q  c #3CB417",
"!  c #1E8122",
"~  c #258C24",
"^  c #258928",
"/  c #2B952A",
"(  c #2E9B2F",
")  c #258B31",
"_  c #2D9A35",
"`  c #279939",
"'  c #359B37",
"]  c #2BA629",
"[  c #36A826",
"{  c #2CA835",
"}  c #2CAB3D",
"|  c #34A333",
" . c #34B73D",
".. c #46B919",
"X. c #629739",
"o. c #40AE29",
"O. c #4AB829",
"+. c #52BF2B",
"@. c #49AF39",
"#. c #4CB533",
"$. c #56BD32",
"%. c #2C8944",
"&. c #259645",
"*. c #299B54",
"=. c #2BA745",
"-. c #30A44F",
";. c #2EB343",
":. c #35B946",
">. c #2DA856",
",. c #32A953",
"<. c #32B751",
"1. c #31BA59",
"2. c #368C65",
"3. c #299E61",
"4. c #339A67",
"5. c #2EAE65",
"6. c #30AF62",
"7. c #32BD64",
"8. c #32B96A",
"9. c #34B776",
"0. c #478648",
"q. c #529549",
"w. c #5B8A58",
"e. c #489A5A",
"r. c #708F4C",
"t. c #678B5D",
"y. c #708950",
"u. c #45AA48",
"i. c #4CB949",
"p. c #55BA45",
"a. c #48A958",
"s. c #57A158",
"d. c #46B658",
"f. c #58BC5E",
"g. c #68B04E",
"h. c #459D6D",
"j. c #509D75",
"k. c #699E71",
"l. c #48A96A",
"z. c #59AB75",
"x. c #6BB06D",
"c. c #37C153",
"v. c #35C569",
"b. c #38D06A",
"n. c #34C374",
"m. c #36C77B",
"M. c #38C97A",
"N. c #38D072",
"B. c #3CD17D",
"V. c #5DC645",
"C. c #4EC558",
"Z. c #4FCC76",
"A. c #998242",
"S. c #8B8166",
"D. c #898B77",
"F. c #A9876B",
"G. c #AB8A74",
"H. c #A8B27F",
"J. c #EC825D",
"K. c #F78154",
"L. c #F88355",
"P. c #F7875B",
"I. c #F8845A",
"U. c #D9896E",
"Y. c #CD8D7D",
"T. c #D58774",
"R. c #F68968",
"E. c #65B98A",
"W. c #39C985",
"Q. c #3CD989",
"!. c #3CDA91",
"~. c #3FE392",
"^. c #46D585",
"/. c #54CF90",
"(. c #45DC92",
"). c #6ECF8E",
"_. c #5AE387",
"`. c #44E293",
"'. c #43E49A",
"]. c #4CE698",
"[. c #4DE99F",
"{. c #53EB9D",
"}. c #66E188",
"|. c #4AECA5",
" X c #57EAA4",
".X c #65E4A7",
"XX c #8F8381",
"oX c #9C8384",
"OX c #909592",
"+X c #A68D86",
"@X c #BA8D8D",
"#X c #92AC86",
"$X c #A9A68A",
"%X c #BCB8A5",
"&X c #C68280",
"*X c #F19B87",
"=X c #CCA28A",
"-X c #CDA593",
";X c #D3AC93",
":X c #CFB49D",
">X c #D5B19A",
",X c #F3B095",
"<X c #FAB19B",
"1X c #CBBFAE",
"2X c #D5BCB1",
"3X c #E6B8A8",
"4X c #92C287",
"5X c #B0C3A0",
"6X c #C8CFAF",
"7X c #CCD0B7",
"8X c #E1C0A7",
"9X c #F3C0A3",
"0X c #E9CAB6",
"qX c #F6CEB0",
"wX c #FAD6BB",
"eX c #D3C3C2",
"rX c #FAD4CB",
"tX c #FAE2CA",
/* pixels */
"7.B.^.B.v.1.1.8.8.6.-.` | i.V.o.o.V.i.| ` -.6.8.8.1.1.v.B.^.B.7.",
"'.|.|.{.].`.!.Q.m.9.5.>.,.a.u.` ` u.a.,.>.5.9.m.Q.!.`.].{.|.|.'.",
"~.'.'.].{.{.[.'.(./.z.w.y.y.6 6 6 6 y.y.w.z./.(.'.[.{.{.].'.'.~.",
"b.v.N.Z._.}.).).4XH.F.s z z z z z z z z s F.H.4X).).}._.Z.N.v.b.",
":.{  .C.C.g.r.A.s c N A A K.K.K.K.K.K.A A N c s A.r.g.C.C. .{ :.",
"[ ] { u.X.q w c V V L.P.P.L.L.P.P.L.L.P.P.L.V V c w q X.u.{ ] [ ",
"} ,.a.r.q w N I.P.I.A A A A A A A A A A A A I.P.I.N w q r.a.,.} ",
"1.l.t.a x J.R.R.Z m b b b b b b b b b b b b m Z R.R.J.x a t.l.1.",
"9.h.* 0 U.<X<XR.n n m m B B M M M M B B m m n n R.<X<XU.0 * h.m.",
"W.4.o = -XrXrX*XN V L.L.I.I.I.L.L.I.I.I.L.L.V N *XrXtX-X= o 4.W.",
"n.9.2.4 OXeXrX,XP.P.I.L.L.L.L.L.L.L.L.L.L.I.P.P.,XrXeXOX4 2.9.9.",
"7.9.j.3 : XX3X*XC B A I.K.L.L.L.L.L.L.K.I.A B C *X3XXX: 3 j.9.7.",
"Z.e.2 = = 8 h D l e n A P.I.P.P.P.P.I.P.A n e l D h 8 = = 2 e.Z.",
"f.0.  < G.f . 9 y j l n Z S S S S S S Z n l j y 9 . f G.<   0.f.",
"=.%.+ ; G.F.< 1 r t u v v k j j j j k v v u t r 1 < F.G.; + %.=.",
"M./.E.w.* * i G.G.d h h r 0 t t t t 0 r h h d G.G.i * * w.E./.M.",
"[. X.X).z.% & G.;X:X2X+XX p =X;X;X=Xp X +X2X:X;XG.& % z.)..X X[.",
"[.[. X X.X).k.S.G.>X0X0X:X8XwXwXwXwX8X:X0X0X>XG.S.k.)..X X X[.[.",
"Q.Q.(.!.!./.E.3 . i ;XwXtXtXwXqXqXwXtXtXwX;Xi . 3 E./.!.!.(.!.Q.",
"1.1.N.^.Z.4., 4 S.f p F.=X3X9X,X,X9X3X=XF.a f S.4 , 4.Z.^.N.1.1.",
"{ =.d.x.t.- 7 1XtX:X5 X g Y.T.U.U.T.Y.g X 5 :XtX6X7 - t.x.d.=.{ ",
"} -.e.t.D.$X%X7X6X$X7 8 oX@X&XT.T.&X@XoX8 7 $X6X7X%X$XD.t.e.,.} ",
">.*.# 2 #X5X#Xk.s.q.- > 4 D.+X+X+X+XD.4 > - q.s.k.#X5X#X2 # *.>.",
"8.3.@ o 0.s.' ` ( ( ~ ^ % % > 2 2 > % % ^ ~ ( ( ` ' s.0.o @ 3.8.",
"M.8.&.) ) _ _ _ ( / / ~ ~ K O O O O K ~ ~ / / ( _ _ _ ) $ &.8.M.",
"M.n.>.` ( | [ @.p.p.| J F H L L L L H F J ' p.p.@.[ | ( ` >.n.M.",
"7.n.v.} W [ O.+.$.#.I F G U Y T T Y U G F I #.$.+.O.[ W } v.n.7.",
"c.<.;.] Y Q ....R L J I o.Q E R E E Q o.I J L R ....Q Y ] ;.<.c.",
" .{ L H Y E R W L K ~ @.V.+.T T T T +.V.@.~ K L W R E Y H L ]  .",
"] / G G G U H H J ! ^ | #.O.........O.#.| ^ ! J H H U G G G P ] ",
";.<.<.<.;.} } =.&.&.&.` ] p.V.o.o.V.p.] ` &.&.&.=.} } ;.<.<.<.;.",
"Q.`.].].`.Q.B.M.n.8.5.*.=.d.i.| | i.d.=.*.5.8.n.M.B.Q.`.].].`.Q."
};
