/* XPM */
static char *_1180a18ca7c40a9cd5c5f4b39f9b5e1S4Ygvhcl8ovw27FC[] = {
/* columns rows colors chars-per-pixel */
"32 32 239 2 ",
"   c #06183E",
".  c #0A1B45",
"X  c #0A1C4B",
"o  c #011448",
"O  c #011A5D",
"+  c #000F48",
"@  c #0D244D",
"#  c #03204A",
"$  c #17274B",
"%  c #0F2453",
"&  c #072557",
"*  c #142A52",
"=  c #1D2C53",
"-  c #142859",
";  c #1C335B",
":  c #1A3656",
">  c #202F58",
",  c #23335B",
"<  c #2C3A5B",
"1  c #273557",
"2  c #343C55",
"3  c #333E5B",
"4  c #383E56",
"5  c #222D4B",
"6  c #172E67",
"7  c #1B3668",
"8  c #0A3974",
"9  c #173676",
"0  c #09306A",
"q  c #2D3D63",
"w  c #243C6D",
"e  c #263965",
"r  c #2E3D69",
"t  c #37415D",
"y  c #3B435D",
"u  c #3B4157",
"i  c #0D4679",
"p  c #17447C",
"a  c #294369",
"s  c #344365",
"d  c #3B4563",
"f  c #36466A",
"g  c #394669",
"h  c #3C4A6C",
"j  c #3A4B68",
"k  c #2D4473",
"l  c #294777",
"z  c #334B73",
"x  c #3E4E73",
"c  c #384F7B",
"v  c #355072",
"b  c #3A5177",
"n  c #33537B",
"m  c #3D527C",
"M  c #395C7E",
"N  c #414A64",
"B  c #424C6A",
"V  c #404764",
"C  c #445274",
"Z  c #4A5574",
"A  c #42547A",
"S  c #4B5B7D",
"D  c #4A5678",
"F  c #545F7D",
"G  c #51717E",
"H  c #0D3E80",
"J  c #0A4A8E",
"K  c #194786",
"L  c #1C5385",
"P  c #1F578A",
"I  c #154B94",
"U  c #18579B",
"Y  c #294788",
"T  c #235B8C",
"R  c #27558C",
"E  c #3C5C8C",
"W  c #385685",
"Q  c #21599D",
"!  c #2B5895",
"~  c #355998",
"^  c #304B89",
"/  c #3A6084",
"(  c #3A648C",
")  c #2B6594",
"_  c #316592",
"`  c #3C6C95",
"'  c #396A9A",
"]  c #2D709A",
"[  c #38739C",
"{  c #26608E",
"}  c #1B5CA1",
"|  c #2A5DA5",
" . c #1966A8",
".. c #226AAD",
"X. c #3563AA",
"o. c #3C6AA3",
"O. c #3B7AA3",
"+. c #3877A4",
"@. c #3A6DB1",
"#. c #2671B4",
"$. c #4B5D82",
"%. c #455C85",
"&. c #475E97",
"*. c #426183",
"=. c #4C6285",
"-. c #44608C",
";. c #4B638C",
":. c #4A6A8B",
">. c #496B84",
",. c #536283",
"<. c #5D6A8B",
"1. c #586586",
"2. c #4C7589",
"3. c #5D7F8D",
"4. c #567886",
"5. c #416193",
"6. c #466896",
"7. c #546D95",
"8. c #546997",
"9. c #44759B",
"0. c #4B749B",
"q. c #477998",
"w. c #5C7194",
"e. c #577897",
"r. c #617F85",
"t. c #63728F",
"y. c #616E92",
"u. c #677493",
"i. c #697898",
"p. c #737E9D",
"a. c #496AA5",
"s. c #447BA3",
"d. c #4B7CA3",
"f. c #4A76A9",
"g. c #497AAB",
"h. c #5C7BA4",
"j. c #5779A6",
"k. c #426CB2",
"l. c #4A7CB5",
"z. c #547CBB",
"x. c #5C7DBB",
"c. c #547BB5",
"v. c #657BA4",
"b. c #687DA8",
"n. c #637DB9",
"m. c #717DA7",
"M. c #637EC1",
"N. c #3A87B6",
"B. c #3D84AE",
"V. c #5B829A",
"C. c #698384",
"Z. c #6B8993",
"A. c #4382AC",
"S. c #4C83AA",
"D. c #4C84A7",
"F. c #5984A7",
"G. c #4586B2",
"H. c #4C86B4",
"J. c #458AB4",
"K. c #4B89B4",
"L. c #4C87BD",
"P. c #428CBC",
"I. c #4B8DBB",
"U. c #508AB5",
"Y. c #5883B7",
"T. c #4A92BD",
"R. c #5B95BD",
"E. c #6483AB",
"W. c #6B83AD",
"Q. c #6886A7",
"!. c #7485AD",
"~. c #7B8AAC",
"^. c #6D86B1",
"/. c #6C8AB3",
"(. c #6B86B8",
"). c #738AB4",
"_. c #7C8BB5",
"`. c #768BB5",
"'. c #7591B6",
"]. c #7C92BB",
"[. c #7C93B7",
"{. c #6891BF",
"}. c #4B8AC0",
"|. c #4392C3",
" X c #4C96C3",
".X c #4B99CA",
"XX c #4B97C8",
"oX c #5697C7",
"OX c #5688C6",
"+X c #6C85C5",
"@X c #6888C4",
"#X c #748BC5",
"$X c #6697CA",
"%X c #7F9BC3",
"&X c #7697C7",
"*X c #6F97D8",
"=X c #7A98D4",
"-X c #678ED3",
";X c #56A3D2",
":X c #78A4D8",
">X c #76A9D3",
",X c #8498BF",
"<X c #8293BA",
"1X c #818CB4",
"2X c #8B9DC5",
"3X c #849CC4",
"4X c #829BD6",
"5X c #8BA3CB",
"6X c #8CA8CD",
"7X c #96A4C9",
"8X c #8EACD4",
"9X c #84A5DD",
"0X c #87AADC",
"qX c #98ACD5",
"wX c #93B1DC",
"eX c #9AB4DB",
"rX c #8FB0DD",
"tX c #89AAE6",
"yX c #94ADE9",
"uX c #8DBAEF",
"iX c #88B5E4",
"pX c #91B6E6",
"aX c #94B5EB",
"sX c #99BAE9",
"dX c #99B8F5",
"fX c #8FB2F4",
"gX c #A2BDE3",
"hX c #A4BFFC",
"jX c #9CC1EC",
"kX c #95C2EC",
"lX c #99C2F6",
"zX c #A3C2EC",
"xX c #A9C5EC",
"cX c #A4CAFD",
"vX c #ABCDFF",
"bX c #A7C7F6",
"nX c #B0CDFF",
"mX c #B4D4FF",
"MX c #A6D0FF",
/* pixels */
"C.Z.C.4.2.2.D.J.H.L.L.}.k.o.o.o.G.J.J.T. XT.P.P.|.|.|.|.|.|.N.N.",
"C.C.G 4.2.D.D.U.oX}.}.L.z.l.OX$X$XT.J.J.N.B.N.|.|.XX.X.X|.|.|.|.",
"C.C.r.4.2.q.D.K.L.}.OXoX$X:X:XuX>XR.K.K.A.B.B.T.N.|..X.X.X.X.X;X",
"C.C.3.3.q.q.D.S.G.L.$X:XuXlXcXMXkX>XR.K.A.A.J.I.G.P.T. X.X.X;X;X",
"4.C.C.V.V.q.[ d.K.$X>XuXcXMXvXMXkX>XR.D.` D.K.K.G.G.G.I. XXX X X",
"G G V.V.V.q.d.S.$X>XiXlXbXbXzXjXMXkX&XD.{ ( D.D.S.A.A.J.J.J.B.B.",
"G 2.V.Q.V.0.0.c.$XiXuXjXjXzXxXzXbXgX8X%XV.` ( ` q.q.s.s.A.B.] ] ",
">.2.V.Q.Q.0.0.d.@X6XpXsXjXbXxXxXwXwXjXbX8Xe.n M ( ` [ q.[ [ ] ] ",
"e.e.V.Q.E.0.0.h.&X=XrXsXsXgXeX5X5X5XqXxXgX'.*.a n / q.d.s.[ [ O.",
"F.2.:.e.E./.^./.(.'.3X8XeXgXeX6X!.3X2X6X5X'.w.:.:./ M ` D.` _ [ ",
"2.>.*.:.h./.).n.^.^.'.3X6XwX6X'.w._.[.!.~.Q.w.w.e.*.z / d.6._ s.",
"/ :.:.-.;.w.!.`.^.^.%X5X5X5X3X'.b.].~.v.p.F j j ,.=.n l ( ` ' F.",
"v M / b b :.m.].!.3X8XeX2X3X3X[.].W.v.!.!.S > $ j S v a W 0.a.` ",
": v =.7.v.~._._.m.<XqXeX%X/./.'.b.&.,.Q.~.u.h 3 j b z e E '.Y.p ",
": v i.2XqXqX2X1Xm._.4X2XW.h.h.F.7.k m w.i.<.1.h h j < 7 %.8X=Xl ",
"@ a e.[.2X<X1X1Xm.m._._.b.h.v.E.v.m A ,.b Z Z 1 s = $ % ^ rXaX` ",
"# n W.<X,X,X7X7X1Xy.A A ;.j.n.b.&.m x A S ,.F S s a = % k +XyXyX",
"7 -.^.3X<X~.1X1Xy.Z q q m ;.8.7.m , > h S 1.<.,.s j z r w %.#XhX",
"a 6.^.v.t.<.i.p.1.B q g A $.;.%.f = > Z <.t.u.i.j s a k 7 6 &.aX",
"& 5.b.8.D F <.<.Z V d g x h a < q < C <.u.u.i.p.S j e k 6 o w 4X",
"6 E j.j.;.$.D g Z V V V B d < 1 1 d Z F 1.u.p.u.D r > 6 o + ^ 4X",
"f.E E ;.8.$.B g Z V y V N N j B 3 t t y Z i.p.<.h 5 X % 6 W +X4X",
"=XY.&.W W m C B 3 2 2 2 u 2 u y y t 2 2 N F <.C r @ e 8.#XyXhX=X",
":XtX#XE k m x < r 4 u V N u 2 2 d t d j y d d < . . 8.yXhXnXfXa.",
"z.tXcX0Xj.a % * 5 < y u N y u N 4 1 5 3 Z V = .   % x.nXmXtXz.! ",
"! H.=XaXiXE.l ;   #   $ t N y t r g g g g , X - % &.4X4Xc.~ H 0 ",
"o.s.f.Y.:XpX=XE.-.m ; . $ 1 < 1 = < r > - + X 6 a.9XhX-X~ H H I ",
"l.Y.' R g.0XkXpXrXwX).c * @ . # . + + + r m &.M.tXtX*Xz.@.Q H | ",
"T [ ' ) s.g.f.f.9XbXmXrXn.&.r r r r ^ &.+X4XyXfXfX*X@.X.@.| J } ",
"L L T o.o.L 0 8 ' -XaXdXhXtX4XM.M.#X4XyXdXtXM.M.-XOX@.} U U } ..",
"{ T L L P p 8 8 8 R o.l.n.+XM.n.M.M.M.+XM.k.^ H X.X.| I J U .. .",
"P +.] i i T ! L p L K Y Y 9 6 Y 6 6 O O H Y ~ k.X.I J U } ..#. ."
};
